<svg id="Layer_1" xmlns="http://www.w3.org/2000/svg" viewBox="0 0 245.2 310.1"><style>.st0{fill:#FFF}</style><g id="XMLID_74_"><path id="XMLID_115_" class="st0" d="M119.6 55.1c0-1.5 1-2.9 2.5-3.9 1.6 1 2.5 2.4 2.5 3.9s-1 2.9-2.5 3.9c-1.5-1-2.5-2.3-2.5-3.9"/><path id="XMLID_114_" class="st0" d="M124.2 63.1c-1.3-.8-2-2.3-2.1-4.1 1.6-.9 3.3-1 4.6-.2 1.3.8 2 2.3 2.1 4.1-1.5.9-3.2 1-4.6.2"/><path id="XMLID_113_" class="st0" d="M120 63.1c1.3-.8 2-2.3 2.1-4.1-1.6-.9-3.3-1-4.6-.2-1.3.8-2.1 2.3-2.1 4.1 1.6.9 3.3 1 4.6.2"/><path id="XMLID_112_" class="st0" d="M137.4 56.5c.3-1.5 1.6-2.7 3.3-3.3 1.3 1.3 2 2.8 1.7 4.3-.3 1.5-1.6 2.7-3.3 3.3-1.3-1.3-2-2.8-1.7-4.3"/><path id="XMLID_111_" class="st0" d="M140.3 65.3c-1.1-1-1.5-2.7-1.2-4.5 1.8-.5 3.4-.3 4.6.7 1.1 1 1.5 2.7 1.2 4.5-1.8.5-3.5.3-4.6-.7"/><path id="XMLID_110_" class="st0" d="M136.2 64.4c1.5-.5 2.5-1.8 2.9-3.6-1.4-1.2-3-1.7-4.5-1.2s-2.5 1.8-2.9 3.6c1.4 1.2 3 1.7 4.5 1.2"/><path id="XMLID_109_" class="st0" d="M154.7 61.4c.6-1.4 2.1-2.3 3.9-2.5 1 1.5 1.4 3.2.7 4.6-.6 1.4-2.1 2.3-3.9 2.5-1-1.5-1.3-3.2-.7-4.6"/><path id="XMLID_108_" class="st0" d="M151.8 68.9c1.5-.2 2.8-1.3 3.6-2.9-1.1-1.4-2.6-2.3-4.1-2.1-1.5.2-2.8 1.3-3.6 2.9 1.1 1.5 2.6 2.3 4.1 2.1"/><path id="XMLID_107_" class="st0" d="M106.5 56.5c-.3-1.5-1.6-2.7-3.3-3.3-1.3 1.3-2 2.8-1.7 4.3.3 1.5 1.6 2.7 3.3 3.3 1.3-1.3 2-2.8 1.7-4.3"/><path id="XMLID_106_" class="st0" d="M103.6 65.3c1.1-1 1.5-2.7 1.2-4.5-1.8-.5-3.4-.3-4.6.7-1.1 1-1.5 2.7-1.2 4.5 1.8.5 3.5.3 4.6-.7"/><path id="XMLID_105_" class="st0" d="M107.7 64.4c-1.5-.5-2.5-1.8-2.9-3.6 1.4-1.2 3-1.7 4.5-1.2s2.5 1.8 2.9 3.6c-1.4 1.2-3 1.7-4.5 1.2"/><path id="XMLID_104_" class="st0" d="M89.2 61.4c-.6-1.4-2.1-2.3-3.9-2.5-1 1.5-1.4 3.2-.7 4.6s2.1 2.3 3.9 2.5c1-1.5 1.3-3.2.7-4.6"/><path id="XMLID_103_" class="st0" d="M92.1 68.9c-1.5-.2-2.8-1.3-3.6-2.9 1.1-1.4 2.6-2.3 4.1-2.1 1.5.2 2.8 1.3 3.6 2.9-1.1 1.5-2.6 2.3-4.1 2.1"/><path id="XMLID_102_" class="st0" d="M92.1 73.9l3.4 5.2c7.8-3.6 16.9-5.9 26.6-5.9 9.7 0 18.8 2.4 26.6 5.9l3.4-5.2c-8.7-4.2-19-6.7-29.9-6.7-11 .1-21.3 2.5-30.1 6.7"/><path id="XMLID_101_" class="st0" d="M117.9 22.3c0-2.3 1.9-4.2 4.2-4.2 2.3 0 4.2 1.9 4.2 4.2 0 2.3-1.9 4.2-4.2 4.2-2.3-.1-4.2-1.9-4.2-4.2"/><path id="XMLID_100_" class="st0" d="M97.5 41.6c-1.1-.3-2.4-.5-3.7-.5-5.4 0-9.8 3.3-9.8 7.4 0 1.9 1 3.7 2.5 5l-4.3 4.3c-2.7-2.4-4.3-5.7-4.3-9.3C77.9 41 85 35 93.9 35c2.3 0 4.5.4 6.5 1.2 2.9-3.3 7.6-5.5 12.9-5.5 3.3 0 6.3.8 8.8 2.3 2.5-1.4 5.6-2.3 8.8-2.3 5.3 0 10 2.2 12.9 5.5 2-.7 4.2-1.2 6.5-1.2 8.8 0 16 6.1 16 13.5 0 3.6-1.7 6.9-4.3 9.3l-4.3-4.3c1.6-1.3 2.5-3 2.5-5 0-4.1-4.4-7.4-9.8-7.4-1.3 0-2.5.2-3.7.5.2.8.3 1.7.3 2.5 0 2.7-.9 5.2-2.5 7.3l-4.4-4.4c.5-.9.8-1.9.8-2.9 0-4.1-4.4-7.4-9.8-7.4-2.1 0-4.1.5-5.6 1.3v9h-6.1v-8.8c-1.6-.9-3.7-1.5-5.9-1.5-5.4 0-9.8 3.3-9.8 7.4 0 1 .3 2 .8 2.9l-4.4 4.4c-1.6-2.1-2.5-4.6-2.5-7.3-.4-.8-.3-1.7-.1-2.5"/><path id="XMLID_99_" class="st0" d="M118.1 288.4c0-2.2 1.8-4 4-4s4 1.8 4 4-1.8 4-4 4c-2.3 0-4-1.8-4-4"/><path id="XMLID_98_" class="st0" d="M11.4 181.8c0-2.2 1.8-4 4-4s4 1.8 4 4-1.8 4-4 4c-2.2-.1-4-1.8-4-4"/><path id="XMLID_97_" class="st0" d="M224.7 181.8c0-2.2 1.8-4 4-4s4 1.8 4 4-1.8 4-4 4c-2.2-.1-4-1.8-4-4"/><path id="XMLID_41_" class="st0" d="M101.1 250.6l9.8 9.7v-77.1h-9.8z"/><path id="XMLID_43_" class="st0" d="M210.4 183.2l1.4-1.5-1.4-1.4h-86.9V93.4l-1.4-1.4-1.5 1.4v52.9h-19.5v-33.4l-9.8 9.8v23.6H67.7L58 156h33.3v24.3h9.8V156h19.5v24.3H33.7l-1.4 1.5 1.4 1.4H62v28.3l9.8 9.8v-38.1h48.8V270l1.4 1.5 1.5-1.5v-52.8H143v33.4l9.8-9.8v-23.6h23.5l9.8-9.8h-33.3v-24.2H143v24.2h-19.5v-24.2z"/><path id="XMLID_52_" class="st0" d="M81.6 231l9.7 9.8v-57.6h-9.7z"/><path id="XMLID_53_" class="st0" d="M42.5 192l9.8 9.8v-18.6h-9.8z"/><path id="XMLID_54_" class="st0" d="M143 112.9l-9.8-9.7v77.1h9.8z"/><path id="XMLID_55_" class="st0" d="M162.5 132.5l-9.8-9.8v57.6h9.8z"/><path id="XMLID_56_" class="st0" d="M182 152l-9.7-9.8v38.1h9.7z"/><path id="XMLID_57_" class="st0" d="M201.6 171.5l-9.8-9.8v18.6h9.8z"/><path id="XMLID_86_" class="st0" d="M122 278l96.4-96.3L122 85.4l-96.4 96.3L122 278zm97.8-96.3S209 201 175.7 234.3c-33.7 33.7-53.6 45.1-53.6 45.1s-19.3-10.8-52.7-44.1c-33.7-33.7-45.1-53.6-45.1-53.6s10.8-19.3 44.1-52.6C102.1 95.4 122 84 122 84s19.3 10.7 52.7 44c33.7 33.8 45.1 53.7 45.1 53.7"/><path id="XMLID_83_" class="st0" d="M122 278l96.4-96.3L122 85.4l-96.4 96.3L122 278zm97.8-96.3S209 201 175.7 234.3c-33.7 33.7-53.6 45.1-53.6 45.1s-19.3-10.8-52.7-44.1c-33.7-33.7-45.1-53.6-45.1-53.6s10.8-19.3 44.1-52.6C102.1 95.4 122 84 122 84s19.3 10.7 52.7 44c33.7 33.8 45.1 53.7 45.1 53.7"/><path id="XMLID_80_" class="st0" d="M122 278.3l96.6-96.6L122 85.1l-96.6 96.6 96.6 96.6zm98-96.6s-10.8 19.4-44.2 52.8C142 268.3 122 279.7 122 279.7s-19.4-10.8-52.8-44.2C35.4 201.7 24 181.7 24 181.7s10.8-19.4 44.2-52.8C102 95.1 122 83.8 122 83.8s19.4 10.8 52.8 44.2c33.8 33.8 45.2 53.7 45.2 53.7"/><path id="XMLID_77_" class="st0" d="M122 278.3l96.6-96.6L122 85.1l-96.6 96.6 96.6 96.6zm98-96.6s-10.8 19.4-44.2 52.8C142 268.3 122 279.7 122 279.7s-19.4-10.8-52.8-44.2C35.4 201.7 24 181.7 24 181.7s10.8-19.4 44.2-52.8C102 95.1 122 83.8 122 83.8s19.4 10.8 52.8 44.2c33.8 33.8 45.2 53.7 45.2 53.7z"/></g></svg>