<svg xmlns="http://www.w3.org/2000/svg" width="100" height="95" viewBox="0 0 100 95"><path opacity=".9" fill="#000100" d="M52.45 1c-17.155 0-32.342 9.3-40.18 23.494L1 13.24v31.813h31.853L19.125 31.347c6.372-12.235 18.62-20.56 33.325-20.56 20.086 0 36.752 16.646 36.752 36.713 0 20.07-16.666 36.712-36.752 36.712-16.17 0-29.402-10.275-34.79-24.478H7.365C12.76 79.312 30.892 94 52.45 94 78.42 94 99 72.953 99 47.5S77.93 1 52.45 1zM45.1 25.474V50.44l23.032 13.708 3.915-6.367L52.45 46.033V25.474H45.1z"/></svg>