<svg xmlns="http://www.w3.org/2000/svg" width="81" height="100" viewBox="0 0 81 100"><g fill="#DC052B"><path d="M38.887 15.527c-.48.276-.737.826-.753 1.485.578.31 1.18.36 1.66.086.475-.278.73-.828.75-1.48.017.652.276 1.202.75 1.48.476.273 1.08.222 1.658-.086-.02-.66-.27-1.21-.753-1.485-.474-.273-1.073-.222-1.653.09.555-.347.9-.84.9-1.39s-.346-1.048-.902-1.392c-.557.344-.908.842-.908 1.392s.35 1.043.902 1.39c-.575-.312-1.183-.364-1.653-.09M44.996 15.824c-.52.168-.887.657-1.044 1.293.5.42 1.08.6 1.602.43.526-.167.89-.652 1.043-1.292-.112.65.02 1.24.43 1.607.407.37 1.008.44 1.642.257.11-.642-.022-1.236-.434-1.605-.407-.368-1.008-.44-1.636-.26.616-.222 1.06-.634 1.17-1.167.115-.543-.123-1.1-.594-1.55-.616.216-1.06.633-1.178 1.168-.112.536.126 1.095.592 1.543-.496-.42-1.073-.597-1.594-.426M52.43 18.12c.65-.09 1.17-.4 1.39-.904.23-.503.108-1.097-.257-1.637-.647.088-1.17.4-1.395.9-.225.502-.105 1.093.255 1.634-.4-.515-.924-.807-1.472-.746-.545.05-1.006.454-1.286 1.04.4.525.93.817 1.477.76.548-.058 1.005-.458 1.29-1.047M32.713 16.514c-.41.37-.544.96-.425 1.604.63.182 1.225.11 1.637-.26.412-.365.542-.96.428-1.602-.63-.182-1.23-.11-1.64.258"/><path d="M35.394 17.548c.522.173 1.102-.01 1.604-.43-.154-.64-.52-1.124-1.042-1.294-.512-.166-1.084.007-1.58.417.46-.455.692-1 .58-1.53-.112-.54-.56-.953-1.178-1.173-.472.45-.708 1.01-.594 1.553.112.53.56.945 1.17 1.165.152.64.52 1.122 1.04 1.293M28.783 16.48c-.224-.5-.743-.812-1.396-.904-.367.54-.49 1.137-.262 1.642.225.503.743.814 1.396.903.288.588.74.99 1.286 1.046.547.06 1.078-.236 1.478-.758-.28-.59-.74-.987-1.286-1.04-.55-.062-1.073.233-1.477.752.366-.544.488-1.138.263-1.64M40.517 3.973a1.485 1.485 0 1 0-.003-2.97 1.485 1.485 0 0 0 .003 2.97M40.498 20.682c3.466 0 6.723.85 9.5 2.122l1.218-1.845c-3.116-1.493-6.78-2.387-10.69-2.387-3.9 0-7.57.868-10.723 2.386l1.215 1.844c2.78-1.273 6.053-2.122 9.48-2.122"/><path d="M26.292 15.165l1.545-1.55c-.568-.47-.907-1.09-.907-1.77 0-1.457 1.566-2.64 3.502-2.64.467 0 .907.07 1.31.194-.064.29-.1.59-.1.895 0 .96.33 1.854.9 2.612l1.576-1.58a2.06 2.06 0 0 1-.28-1.038c0-1.456 1.567-2.637 3.5-2.637.796 0 1.528.196 2.114.533v3.123h2.188V8.133a4.313 4.313 0 0 1 2.015-.48c1.938 0 3.507 1.182 3.507 2.637 0 .373-.1.722-.282 1.04l1.578 1.58c.57-.76.895-1.652.895-2.613 0-.304-.03-.606-.096-.896a4.46 4.46 0 0 1 1.31-.193c1.936 0 3.502 1.183 3.502 2.64 0 .68-.34 1.3-.908 1.77l1.547 1.55c.965-.868 1.557-2.035 1.557-3.32 0-2.666-2.553-4.832-5.704-4.832-.825 0-1.605.15-2.314.417-1.04-1.195-2.71-1.972-4.595-1.972-1.17 0-2.253.297-3.158.81a6.398 6.398 0 0 0-3.156-.81c-1.88 0-3.548.776-4.588 1.97a6.568 6.568 0 0 0-2.32-.418c-3.143 0-5.698 2.166-5.698 4.833 0 1.284.597 2.452 1.558 3.32M41.013 59.978h6.973v8.675h-6.973v-8.675zm-1.01-1.006h-6.972v-8.675h6.974v8.675zm0-12.164h-6.972v-11.93l-3.487 3.48v8.45h-8.42l-3.486 3.488h11.906v8.675H8.97l-.51.51.5.497h3.157v3.162l3.488 3.486v-6.65h3.48v10.14l3.49 3.48v-13.62h3.484v17.11l3.485 3.487V59.978h3.488v24.086l3.485 3.487V59.98h3.488V91.03l.502.503.506-.503V72.145h6.973v11.93l3.487-3.507v-8.423H59.9l3.485-3.487H51.473v-8.68h20.57l.52-.52-.503-.486h-3.157v-3.157l-3.485-3.49v6.647H61.93V48.837l-3.483-3.487v13.622h-3.49v-17.11l-3.487-3.48v20.59h-3.483v-24.08L44.5 31.4v27.57h-3.487V27.915l-.5-.5-.508.51v18.882zM40.505 96.156a1.423 1.423 0 0 0 0 2.844c.788 0 1.426-.64 1.426-1.425 0-.778-.637-1.42-1.425-1.42M2.42 58.062a1.42 1.42 0 0 0 0 2.844c.79 0 1.427-.64 1.427-1.422 0-.786-.638-1.422-1.426-1.422M78.574 58.062a1.422 1.422 0 1 0 .007 2.843 1.422 1.422 0 0 0-.007-2.843"/><path d="M40.502 93.887L6.1 59.467 40.5 25.052l34.404 34.413-34.404 34.42zm0-69.323s-7.108 4.044-19.155 16.094C9.457 52.558 5.603 59.466 5.603 59.466S9.66 66.583 21.7 78.63C33.596 90.53 40.502 94.387 40.502 94.387s7.113-4.063 19.158-16.11c11.89-11.9 15.748-18.81 15.748-18.81s-4.062-7.11-16.106-19.16c-11.895-11.896-18.8-15.742-18.8-15.742"/></g></svg>