<?xml version="1.0" encoding="utf-8"?>
<!-- Generator: Adobe Illustrator 16.0.0, SVG Export Plug-In . SVG Version: 6.00 Build 0)  -->
<!DOCTYPE svg PUBLIC "-//W3C//DTD SVG 1.1//EN" "http://www.w3.org/Graphics/SVG/1.1/DTD/svg11.dtd">
<svg version="1.1" id="Capa_1" xmlns="http://www.w3.org/2000/svg" xmlns:xlink="http://www.w3.org/1999/xlink" x="0px" y="0px"
	 width="81px" height="100px" viewBox="0 0 81 100" enable-background="new 0 0 81 100" xml:space="preserve">
<g>
	<path fill="#DC052B" d="M38.887,15.527c-0.479,0.276-0.737,0.826-0.753,1.485c0.578,0.309,1.18,0.36,1.66,0.086
		c0.475-0.278,0.731-0.828,0.751-1.48c0.016,0.652,0.275,1.202,0.75,1.48c0.475,0.273,1.08,0.222,1.657-0.086
		c-0.019-0.66-0.271-1.209-0.753-1.485c-0.473-0.273-1.072-0.222-1.652,0.089c0.555-0.346,0.899-0.839,0.899-1.389
		s-0.345-1.048-0.901-1.392c-0.557,0.344-0.908,0.842-0.908,1.392s0.349,1.043,0.902,1.389
		C39.965,15.305,39.357,15.253,38.887,15.527"/>
	<path fill="#DC052B" d="M44.996,15.824c-0.521,0.168-0.887,0.657-1.044,1.293c0.499,0.421,1.081,0.601,1.602,0.431
		c0.526-0.168,0.889-0.653,1.043-1.293c-0.112,0.65,0.021,1.24,0.431,1.607c0.406,0.369,1.007,0.439,1.641,0.257
		c0.112-0.641-0.021-1.235-0.433-1.604c-0.407-0.368-1.008-0.44-1.636-0.26c0.616-0.222,1.061-0.634,1.171-1.167
		c0.114-0.543-0.124-1.1-0.595-1.551c-0.616,0.217-1.061,0.634-1.178,1.169c-0.112,0.536,0.126,1.095,0.592,1.543
		C46.094,15.831,45.517,15.653,44.996,15.824"/>
	<path fill="#DC052B" d="M52.43,18.121c0.651-0.091,1.171-0.4,1.391-0.905c0.229-0.503,0.107-1.097-0.258-1.637
		c-0.647,0.089-1.17,0.402-1.395,0.902c-0.225,0.501-0.105,1.092,0.255,1.633c-0.4-0.515-0.924-0.807-1.472-0.746
		c-0.546,0.051-1.007,0.454-1.287,1.041c0.401,0.524,0.931,0.816,1.477,0.758C51.688,19.11,52.145,18.71,52.43,18.121"/>
	<path fill="#DC052B" d="M32.713,16.514c-0.409,0.369-0.544,0.961-0.425,1.604c0.629,0.182,1.225,0.11,1.637-0.26
		c0.412-0.365,0.542-0.959,0.428-1.602C33.723,16.074,33.123,16.145,32.713,16.514"/>
	<path fill="#DC052B" d="M35.394,17.548c0.522,0.173,1.102-0.009,1.604-0.431c-0.154-0.638-0.521-1.123-1.042-1.293
		c-0.512-0.166-1.084,0.007-1.58,0.417c0.46-0.456,0.692-1.001,0.58-1.53c-0.112-0.54-0.559-0.954-1.178-1.174
		c-0.472,0.449-0.708,1.01-0.594,1.553c0.112,0.531,0.559,0.945,1.171,1.165C34.506,16.895,34.873,17.377,35.394,17.548"/>
	<path fill="#DC052B" d="M28.783,16.481c-0.224-0.5-0.743-0.813-1.396-0.905c-0.367,0.54-0.489,1.137-0.262,1.642
		c0.225,0.503,0.743,0.814,1.396,0.903c0.287,0.587,0.738,0.99,1.285,1.045c0.547,0.059,1.078-0.236,1.478-0.758
		c-0.281-0.589-0.739-0.987-1.286-1.041c-0.549-0.061-1.073,0.234-1.477,0.753C28.886,17.576,29.008,16.982,28.783,16.481"/>
	<path fill="#DC052B" d="M40.517,3.973c0.818,0,1.484-0.664,1.484-1.487C42.001,1.667,41.335,1,40.517,1
		c-0.825,0-1.487,0.667-1.487,1.485C39.03,3.309,39.691,3.973,40.517,3.973"/>
	<path fill="#DC052B" d="M40.498,20.682c3.466,0,6.723,0.849,9.5,2.122l1.218-1.845c-3.116-1.492-6.781-2.386-10.69-2.386
		c-3.901,0-7.571,0.868-10.723,2.386l1.215,1.845C33.798,21.531,37.071,20.682,40.498,20.682"/>
	<path fill="#DC052B" d="M26.292,15.165l1.545-1.551c-0.568-0.468-0.907-1.09-0.907-1.768c0-1.458,1.566-2.641,3.502-2.641
		c0.467,0,0.907,0.07,1.311,0.194c-0.065,0.29-0.101,0.592-0.101,0.896c0,0.961,0.33,1.854,0.9,2.612l1.576-1.579
		c-0.183-0.318-0.281-0.667-0.281-1.039c0-1.455,1.568-2.636,3.502-2.636c0.795,0,1.527,0.196,2.113,0.533v3.123h2.188V8.134
		c0.573-0.304,1.268-0.479,2.015-0.479c1.938,0,3.507,1.181,3.507,2.636c0,0.372-0.1,0.721-0.282,1.039l1.578,1.579
		c0.571-0.758,0.895-1.651,0.895-2.612c0-0.304-0.03-0.606-0.096-0.896c0.404-0.124,0.844-0.194,1.31-0.194
		c1.936,0,3.502,1.183,3.502,2.641c0,0.678-0.339,1.3-0.907,1.768l1.547,1.551c0.966-0.868,1.558-2.035,1.558-3.319
		c0-2.667-2.553-4.833-5.704-4.833c-0.825,0-1.605,0.15-2.314,0.417C47.209,6.237,45.54,5.46,43.655,5.46
		c-1.171,0-2.253,0.297-3.158,0.809c-0.902-0.512-1.989-0.809-3.156-0.809c-1.88,0-3.549,0.776-4.589,1.969
		c-0.708-0.267-1.491-0.417-2.321-0.417c-3.142,0-5.697,2.166-5.697,4.833C24.735,13.129,25.331,14.297,26.292,15.165"/>
	<path fill="#DC052B" d="M41.013,59.978h6.973v8.675h-6.973V59.978z M40.004,58.972h-6.973v-8.675h6.973V58.972z M40.004,46.808
		h-6.973V34.879l-3.488,3.48v8.448h-8.42l-3.486,3.489h11.906v8.675H8.97l-0.51,0.508l0.499,0.498h3.158v3.162l3.488,3.487v-6.649
		h3.481v10.14l3.49,3.48v-13.62h3.483v17.109l3.486,3.487V59.978h3.488v24.086l3.485,3.487V59.978h3.488v31.052l0.502,0.503
		l0.506-0.503V72.145h6.973v11.931l3.487-3.508v-8.423h8.426l3.485-3.487H51.473v-8.68h20.569l0.521-0.519l-0.503-0.487h-3.157
		v-3.157l-3.485-3.489v6.646H61.93V48.837l-3.483-3.487v13.622h-3.49V41.863l-3.487-3.482v20.591h-3.483V34.891L44.5,31.403v27.568
		h-3.487V27.916l-0.499-0.5l-0.509,0.51V46.808z"/>
	<path fill="#DC052B" d="M40.505,96.156c-0.783,0-1.419,0.641-1.419,1.419c0,0.786,0.636,1.425,1.419,1.425
		c0.788,0,1.426-0.639,1.426-1.425C41.931,96.797,41.293,96.156,40.505,96.156"/>
	<path fill="#DC052B" d="M2.421,58.062C1.636,58.062,1,58.698,1,59.484c0,0.783,0.636,1.422,1.421,1.422
		c0.788,0,1.426-0.639,1.426-1.422C3.847,58.698,3.209,58.062,2.421,58.062"/>
	<path fill="#DC052B" d="M78.574,58.062c-0.783,0-1.419,0.636-1.419,1.422c0,0.783,0.636,1.422,1.419,1.422
		c0.785,0,1.426-0.639,1.426-1.422C80,58.698,79.359,58.062,78.574,58.062"/>
	<path fill="#DC052B" d="M40.502,93.887L6.099,59.466l34.403-34.413l34.404,34.413L40.502,93.887z M40.502,24.564
		c0,0-7.108,4.044-19.155,16.094C9.456,52.559,5.603,59.466,5.603,59.466S9.659,66.583,21.7,78.631
		c11.896,11.897,18.802,15.755,18.802,15.755s7.113-4.063,19.158-16.11c11.891-11.9,15.748-18.81,15.748-18.81
		s-4.062-7.11-16.106-19.161C47.407,28.41,40.502,24.564,40.502,24.564"/>
</g>
</svg>
