<svg xmlns="http://www.w3.org/2000/svg" width="89" height="100" viewBox="0 0 89 100"><path fill="#934127" d="M45.163 99a5.597 5.597 0 0 1-5.6-5.594V83.158a5.597 5.597 0 0 1 5.6-5.594 5.598 5.598 0 0 1 5.602 5.594v10.248c0 3.09-2.51 5.594-5.602 5.594z"/><path fill-rule="evenodd" clip-rule="evenodd" fill="#28662D" d="M88 52.83c0-2.81-1.816-5.192-4.34-6.046.513-.96.807-2.056.807-3.22 0-3.124-2.1-5.75-4.966-6.564a6.79 6.79 0 0 0 1.877-4.688c0-3.598-2.79-6.54-6.32-6.8.078-.296.134-.6.134-.92a3.52 3.52 0 0 0-4.22-3.45 5.95 5.95 0 0 0-6.544-6.435c.104-.438.164-.894.164-1.366 0-3.13-2.427-5.69-5.502-5.92a5.947 5.947 0 0 0-5.752-4.437 5.93 5.93 0 0 0-2.997.815A8.69 8.69 0 0 0 43.95 1a8.706 8.706 0 0 0-7.55 4.368 8.683 8.683 0 0 0-5.483-1.942c-4.813 0-8.713 3.896-8.713 8.702 0 .382.03.755.08 1.124a7.71 7.71 0 0 0-1.307-.12c-4.202 0-7.61 3.403-7.61 7.6 0 1.203.29 2.336.787 3.346a6.282 6.282 0 0 0-4.983 6.14c0 .732.135 1.432.364 2.085-3.19 1.292-5.443 4.412-5.443 8.062 0 1.693.493 3.268 1.33 4.604a8.676 8.676 0 0 0-.21 13.102C2.69 59.597 1 62.354 1 65.512c0 3.573 2.158 6.64 5.243 7.98 1.292 4.98 5.812 8.665 11.202 8.665 3.383 0 6.42-1.458 8.537-3.77a8.266 8.266 0 0 0 13.474 1.314 8.272 8.272 0 0 0 7.637 5.095 8.272 8.272 0 0 0 7.43-4.642 8.258 8.258 0 0 0 6.928 3.76 8.273 8.273 0 0 0 7.257-4.293 6.394 6.394 0 0 0 8.97-5.834c.498.125 1.017.2 1.557.2a6.392 6.392 0 0 0 6.115-8.263A6.374 6.374 0 0 0 88 60.55a6.317 6.317 0 0 0-1.308-3.86A6.332 6.332 0 0 0 88 52.83z"/></svg>