<?xml version="1.0" encoding="utf-8"?>
<!-- Generator: Adobe Illustrator 16.0.0, SVG Export Plug-In . SVG Version: 6.00 Build 0)  -->
<!DOCTYPE svg PUBLIC "-//W3C//DTD SVG 1.1//EN" "http://www.w3.org/Graphics/SVG/1.1/DTD/svg11.dtd">
<svg version="1.1" id="Capa_1" xmlns="http://www.w3.org/2000/svg" xmlns:xlink="http://www.w3.org/1999/xlink" x="0px" y="0px"
	 width="89px" height="100px" viewBox="0 0 89 100" enable-background="new 0 0 89 100" xml:space="preserve">
<g>
	<path fill="#934127" d="M45.163,99c-3.093,0-5.601-2.504-5.601-5.594V83.158c0-3.09,2.507-5.594,5.601-5.594
		c3.093,0,5.602,2.504,5.602,5.594v10.248C50.765,96.496,48.256,99,45.163,99z"/>
	<path fill-rule="evenodd" clip-rule="evenodd" fill="#28662D" d="M88,52.829c0-2.81-1.816-5.191-4.339-6.045
		c0.512-0.96,0.806-2.056,0.806-3.221c0-3.123-2.101-5.749-4.966-6.563c1.16-1.224,1.876-2.87,1.876-4.688
		c0-3.598-2.789-6.539-6.321-6.801c0.079-0.295,0.135-0.6,0.135-0.919c0-1.944-1.578-3.518-3.522-3.518
		c-0.239,0-0.475,0.024-0.699,0.069c0.014-0.171,0.024-0.346,0.024-0.522c0-3.283-2.665-5.946-5.952-5.946
		c-0.207,0-0.411,0.012-0.616,0.033c0.104-0.439,0.164-0.895,0.164-1.367c0-3.131-2.427-5.692-5.502-5.922
		c-0.668-2.55-2.986-4.436-5.752-4.436c-1.093,0-2.113,0.3-2.997,0.815C48.747,2.082,46.478,1,43.949,1
		c-3.23,0-6.043,1.759-7.549,4.368c-1.498-1.213-3.405-1.942-5.483-1.942c-4.813,0-8.713,3.896-8.713,8.702
		c0,0.382,0.031,0.755,0.08,1.124c-0.426-0.073-0.86-0.12-1.307-0.12c-4.202,0-7.609,3.403-7.609,7.6
		c0,1.203,0.288,2.336,0.786,3.346c-2.846,0.6-4.983,3.121-4.983,6.141c0,0.731,0.134,1.431,0.363,2.084
		c-3.19,1.292-5.443,4.412-5.443,8.062c0,1.693,0.492,3.268,1.329,4.604c-1.891,1.597-3.095,3.979-3.095,6.647
		c0,2.564,1.118,4.864,2.886,6.456C2.69,59.597,1,62.354,1,65.512c0,3.573,2.158,6.641,5.243,7.981
		c1.292,4.98,5.812,8.664,11.202,8.664c3.383,0,6.419-1.458,8.537-3.769c1.42,2.506,4.109,4.201,7.199,4.201
		c2.513,0,4.758-1.124,6.275-2.888c1.244,2.989,4.194,5.094,7.637,5.094c3.267,0,6.083-1.896,7.43-4.642
		c1.475,2.261,4.024,3.759,6.928,3.759c3.127,0,5.851-1.735,7.256-4.292c0.789,0.346,1.657,0.541,2.574,0.541
		c3.525,0,6.388-2.854,6.395-6.375c0.498,0.125,1.017,0.199,1.557,0.199c3.53,0,6.395-2.86,6.395-6.387
		c0-0.653-0.101-1.282-0.28-1.875C86.951,64.563,88,62.682,88,60.549c0-1.453-0.487-2.787-1.308-3.859
		C87.513,55.616,88,54.28,88,52.829z"/>
</g>
</svg>
