<?xml version="1.0" encoding="utf-8"?>
<!-- Generator: Adobe Illustrator 16.0.0, SVG Export Plug-In . SVG Version: 6.00 Build 0)  -->
<!DOCTYPE svg PUBLIC "-//W3C//DTD SVG 1.1//EN" "http://www.w3.org/Graphics/SVG/1.1/DTD/svg11.dtd">
<svg version="1.1" id="Capa_1" xmlns="http://www.w3.org/2000/svg" xmlns:xlink="http://www.w3.org/1999/xlink" x="0px" y="0px"
	 width="85px" height="100px" viewBox="0 0 85 100" enable-background="new 0 0 85 100" xml:space="preserve">
<g>
	<path d="M42.497,99c5.379,0,9.762-4.4,9.762-9.815H32.727C32.727,94.6,37.141,99,42.497,99L42.497,99z M74.223,69.601V42.658
		c0-15.207-10.241-27.451-24.395-30.867V8.34c0-3.924-3.419-7.34-7.332-7.34c-3.897,0-7.316,3.416-7.316,7.34v3.451
		c-14.162,3.416-24.41,15.66-24.41,30.867v26.943L1,79.416v4.903h83v-4.903L74.223,69.601z M74.223,69.601"/>
</g>
</svg>
