<?xml version="1.0" encoding="utf-8"?>
<!-- Generator: Adobe Illustrator 16.0.0, SVG Export Plug-In . SVG Version: 6.00 Build 0)  -->
<!DOCTYPE svg PUBLIC "-//W3C//DTD SVG 1.1//EN" "http://www.w3.org/Graphics/SVG/1.1/DTD/svg11.dtd">
<svg version="1.1" id="Capa_1" xmlns="http://www.w3.org/2000/svg" xmlns:xlink="http://www.w3.org/1999/xlink" x="0px" y="0px"
	 width="100px" height="87px" viewBox="0 0 100 87" enable-background="new 0 0 100 87" xml:space="preserve">
<g>
	<path fill="#E20917" d="M50.09,15.986c2.522-5.208,6.177-9.16,11.123-11.857c14.334-7.817,32.84-0.088,37.094,15.485
		c1.438,5.263,0.692,10.385-0.922,15.487c-2.87,9.072-8.076,16.699-14.342,23.678c-7.824,8.716-16.841,16.053-26.354,22.805
		c-1.967,1.393-3.958,2.752-5.932,4.133c-0.385,0.269-0.685,0.431-1.184,0.094C39.6,79.117,30.03,71.915,21.501,63.4
		c-5.99-5.98-11.399-12.426-15.292-20.019c-2.358-4.601-4.2-9.411-4.898-14.571C0.268,21.099,2.665,14.476,8.027,8.966
		c12.566-12.909,33.541-9.668,41.711,6.393C49.823,15.526,49.922,15.687,50.09,15.986z"/>
</g>
</svg>
