<svg xmlns="http://www.w3.org/2000/svg" width="100" height="87" viewBox="0 0 100 87"><path fill="#E20917" d="M50.09 15.986c2.522-5.208 6.177-9.16 11.123-11.857 14.334-7.82 32.84-.09 37.094 15.483C99.745 24.877 99 30 97.385 35.1c-2.87 9.073-8.076 16.7-14.342 23.68-7.824 8.715-16.84 16.052-26.354 22.804-1.97 1.393-3.96 2.752-5.934 4.133-.385.27-.685.43-1.184.094C39.6 79.12 30.03 71.917 21.5 63.4c-5.99-5.98-11.398-12.426-15.29-20.02-2.36-4.6-4.2-9.41-4.9-14.57C.27 21.1 2.666 14.476 8.028 8.966c12.566-12.91 33.54-9.668 41.71 6.393.086.165.185.326.353.625z"/></svg>