<svg xmlns="http://www.w3.org/2000/svg" width="89" height="100" viewBox="0 0 89 100"><path fill="#B7C4C6" d="M88 92.05c0 3.837-3.125 6.95-6.977 6.95H7.975C4.125 99 1 95.887 1 92.05V44.977c0-3.838 3.124-6.95 6.975-6.95h73.05c3.85 0 6.976 3.11 6.976 6.95V92.05z"/><path fill="#94A8B0" d="M81.023 98.844H7.975A6.96 6.96 0 0 1 1.01 92.06l40.373-30.33a4.095 4.095 0 0 1 3.117-1.432 4.1 4.1 0 0 1 2.982 1.282L87.988 92.1a6.96 6.96 0 0 1-6.965 6.744z"/><path fill="#DBE1E1" d="M81.023 38.026H7.975A6.958 6.958 0 0 0 1.01 44.81l40.373 30.33a4.103 4.103 0 0 0 3.117 1.43 4.1 4.1 0 0 0 2.982-1.28l40.506-30.524a6.96 6.96 0 0 0-6.965-6.74z"/><path fill="#E84945" d="M59.334 18.874a2.487 2.487 0 0 0-2.49-2.483c-.03 0-.056.01-.084.01v-.01h-5.09V3.318A2.32 2.32 0 0 0 49.343 1h-9.188a2.32 2.32 0 0 0-2.326 2.316V16.39h-5.676a2.487 2.487 0 0 0-2.49 2.483c0 .75.342 1.416.87 1.87l12.53 11.97.023-.005c.35.387.853.635 1.416.635.57 0 1.076-.254 1.428-.65l.01.002 12.415-11.862a2.47 2.47 0 0 0 .978-1.96z"/></svg>