<?xml version="1.0" encoding="utf-8"?>
<!-- Generator: Adobe Illustrator 16.0.0, SVG Export Plug-In . SVG Version: 6.00 Build 0)  -->
<!DOCTYPE svg PUBLIC "-//W3C//DTD SVG 1.1//EN" "http://www.w3.org/Graphics/SVG/1.1/DTD/svg11.dtd">
<svg version="1.1" id="Capa_1" xmlns="http://www.w3.org/2000/svg" xmlns:xlink="http://www.w3.org/1999/xlink" x="0px" y="0px"
	 width="89px" height="100px" viewBox="0 0 89 100" enable-background="new 0 0 89 100" xml:space="preserve">
<g>
	<g>
		<path fill="#B7C4C6" d="M88,92.05c0,3.837-3.125,6.95-6.977,6.95H7.975C4.124,99,1,95.887,1,92.05V44.977
			c0-3.838,3.124-6.951,6.975-6.951h73.049c3.852,0,6.977,3.112,6.977,6.951V92.05z"/>
		<path fill="#94A8B0" d="M81.023,98.844H7.975c-3.795,0-6.874-3.022-6.965-6.784L41.383,61.73c0.752-0.877,1.87-1.432,3.117-1.432
			c1.174,0,2.234,0.493,2.982,1.282l40.506,30.521C87.874,95.845,84.805,98.844,81.023,98.844z"/>
		<path fill="#DBE1E1" d="M81.023,38.026H7.975c-3.795,0-6.874,3.022-6.965,6.783L41.383,75.14c0.752,0.874,1.87,1.429,3.117,1.429
			c1.174,0,2.234-0.492,2.982-1.28l40.506-30.523C87.874,41.025,84.805,38.026,81.023,38.026z"/>
	</g>
	<g>
		<path fill="#E84945" d="M59.334,18.874c0-1.371-1.115-2.483-2.489-2.483c-0.03,0-0.057,0.007-0.085,0.008v-0.008h-5.091V3.316
			C51.669,2.037,50.628,1,49.344,1h-9.188c-1.285,0-2.326,1.037-2.326,2.316v13.074h-5.675c-1.375,0-2.49,1.112-2.49,2.483
			c0,0.75,0.342,1.416,0.871,1.871l12.529,11.97l0.023-0.006c0.35,0.387,0.853,0.635,1.416,0.635c0.571,0,1.076-0.254,1.428-0.65
			l0.008,0.002l12.416-11.862C58.947,20.38,59.334,19.674,59.334,18.874z"/>
	</g>
</g>
</svg>
