<svg xmlns="http://www.w3.org/2000/svg" width="100" height="72" viewBox="0 0 100 72"><path fill="#BC1620" d="M92.613 17.678h-43.82l5.215-2.375a7.512 7.512 0 1 0-6.223-13.675l-19.816 9.02c-2.026.922-2.8 2.392-4.05 4.6 0 0-3.205 5.864-4.445 9.008h-15.3c-1.928 0-3.49 1.45-3.49 3.24V62.43c0 1.788 1.56 3.237 3.49 3.237h20.747c1.574 2.398 4.436 5.28 9.284 5.28 3.817 0 11.655-.09 18.906-.188.22.027.44.068.672.068h11.91a5.628 5.628 0 0 0 0-11.254h-.492v-.836h6.266a6.432 6.432 0 0 0 6.432-6.434 6.43 6.43 0 0 0-6.432-6.433h-6.266v-.748h6.355a7.25 7.25 0 0 0 0-14.498h-6.355v-.814h27.412a6.067 6.067 0 0 0 0-12.135z"/></svg>