<svg xmlns="http://www.w3.org/2000/svg" width="100" height="72" viewBox="0 0 100 72"><path fill="#FBEEDE" d="M92.613 17.678h-43.82l5.215-2.375a7.513 7.513 0 0 0-6.224-13.675l-19.816 9.02c-2.025.922-2.798 2.392-4.05 4.6 0 0-3.204 5.864-4.444 9.008h-15.3c-1.928 0-3.49 1.45-3.49 3.24V62.43c0 1.79 1.56 3.24 3.49 3.24H24.92c1.575 2.4 4.437 5.28 9.285 5.28 3.817 0 11.655-.09 18.906-.188.222.027.442.068.673.068h11.91a5.628 5.628 0 0 0 0-11.254H65.2v-.836h6.267a6.432 6.432 0 0 0 6.432-6.434 6.43 6.43 0 0 0-6.433-6.432H65.2v-.748h6.356a7.25 7.25 0 0 0 0-14.498H65.2v-.814h27.413a6.068 6.068 0 1 0 0-12.136z"/></svg>