<svg xmlns="http://www.w3.org/2000/svg" width="100" height="72" viewBox="0 0 100 72"><path fill="#BC1620" d="M92.613 17.678h-43.82l5.215-2.375a7.512 7.512 0 1 0-6.223-13.675l-19.816 9.02c-2.027.922-2.8 2.392-4.05 4.6 0 0-3.206 5.864-4.446 9.008h-15.3c-1.928 0-3.49 1.45-3.49 3.24V62.43c0 1.788 1.56 3.237 3.49 3.237H24.92c1.575 2.398 4.437 5.28 9.285 5.28 3.817 0 11.655-.09 18.906-.188.22.026.44.067.673.067h11.91a5.628 5.628 0 0 0 0-11.254H65.2v-.836h6.267a6.432 6.432 0 0 0 6.432-6.434 6.43 6.43 0 0 0-6.433-6.433H65.2v-.748h6.356a7.25 7.25 0 0 0 0-14.498H65.2v-.814h27.413a6.067 6.067 0 0 0 0-12.135z"/></svg>