<?xml version="1.0" encoding="utf-8"?>
<!-- Generator: Adobe Illustrator 16.0.0, SVG Export Plug-In . SVG Version: 6.00 Build 0)  -->
<!DOCTYPE svg PUBLIC "-//W3C//DTD SVG 1.1//EN" "http://www.w3.org/Graphics/SVG/1.1/DTD/svg11.dtd">
<svg version="1.1" id="Capa_1" xmlns="http://www.w3.org/2000/svg" xmlns:xlink="http://www.w3.org/1999/xlink" x="0px" y="0px"
	 width="100px" height="72px" viewBox="0 0 100 72" enable-background="new 0 0 100 72" xml:space="preserve">
<path fill="#BC1620" d="M92.613,17.678H48.792l5.216-2.375c3.775-1.719,5.443-6.174,3.725-9.95
	c-1.717-3.775-6.174-5.443-9.948-3.725l-19.816,9.021c-2.025,0.921-2.798,2.391-4.05,4.599c0,0-3.204,5.864-4.444,9.008h-15.3
	c-1.928,0-3.491,1.45-3.491,3.239v34.937c0,1.788,1.562,3.237,3.491,3.237h20.747c1.574,2.399,4.436,5.281,9.284,5.281
	c3.817,0,11.655-0.091,18.906-0.188c0.221,0.027,0.441,0.068,0.672,0.068h11.91c3.106,0,5.629-2.52,5.629-5.627
	c0-3.109-2.521-5.627-5.629-5.627h-0.492V58.74h6.266c3.553,0,6.432-2.879,6.432-6.434c0-3.554-2.879-6.433-6.432-6.433h-6.266
	v-0.748h6.355c4,0,7.248-3.246,7.248-7.25c0-4.003-3.248-7.248-7.248-7.248h-6.355v-0.814h27.412c3.354,0,6.07-2.718,6.07-6.068
	C98.684,20.395,95.969,17.678,92.613,17.678z"/>
</svg>
