<svg xmlns="http://www.w3.org/2000/svg" width="81" height="100" viewBox="0 0 81 100"><path fill-rule="evenodd" clip-rule="evenodd" fill="#CCD6DC" d="M54.765 1H1v98h79V26.074z"/><path fill-rule="evenodd" clip-rule="evenodd" fill="#CCD6DC" d="M79.982 27.136h-27.54V1.294"/><path fill-rule="evenodd" clip-rule="evenodd" fill="#FFF" d="M54.765 1H1v98h79V26.074z"/><path fill="#97A9B4" d="M69.89 39.98H9.96c-1.32 0-2.393-1.073-2.393-2.398s1.07-2.4 2.393-2.4h59.93c1.32 0 2.39 1.075 2.39 2.4s-1.068 2.4-2.39 2.4zM69.89 50.336H9.96a2.396 2.396 0 0 1-2.393-2.4c0-1.325 1.07-2.398 2.393-2.398h59.93c1.32 0 2.39 1.074 2.39 2.4 0 1.324-1.068 2.398-2.39 2.398zM69.89 60.69H9.96a2.397 2.397 0 0 1-2.393-2.4 2.396 2.396 0 0 1 2.393-2.4h59.93c1.32 0 2.39 1.075 2.39 2.4s-1.068 2.4-2.39 2.4zM69.89 71.043H9.96a2.396 2.396 0 0 1-2.393-2.398c0-1.326 1.07-2.4 2.393-2.4h59.93c1.32 0 2.39 1.074 2.39 2.4a2.394 2.394 0 0 1-2.39 2.398zM52.658 81.438H9.96a2.394 2.394 0 0 1-2.393-2.396c0-1.326 1.07-2.4 2.393-2.4h42.698c1.32 0 2.39 1.074 2.39 2.4a2.393 2.393 0 0 1-2.39 2.396zM26.66 91.803H9.96a2.396 2.396 0 0 1-2.393-2.398c0-1.326 1.07-2.4 2.393-2.4h16.7a2.396 2.396 0 0 1 2.393 2.4 2.395 2.395 0 0 1-2.392 2.398zM26.66 23.772H9.96c-1.32 0-2.393-1.074-2.393-2.4s1.07-2.398 2.393-2.398h16.7c1.322 0 2.393 1.074 2.393 2.4s-1.07 2.398-2.392 2.398z"/></svg>