<?xml version="1.0" encoding="utf-8"?>
<!-- Generator: Adobe Illustrator 16.0.0, SVG Export Plug-In . SVG Version: 6.00 Build 0)  -->
<!DOCTYPE svg PUBLIC "-//W3C//DTD SVG 1.1//EN" "http://www.w3.org/Graphics/SVG/1.1/DTD/svg11.dtd">
<svg version="1.1" id="Capa_1" xmlns="http://www.w3.org/2000/svg" xmlns:xlink="http://www.w3.org/1999/xlink" x="0px" y="0px"
	 width="81px" height="100px" viewBox="0 0 81 100" enable-background="new 0 0 81 100" xml:space="preserve">
<g>
	<polygon fill-rule="evenodd" clip-rule="evenodd" fill="#CCD6DC" points="54.765,1 1,1 1,99 80,99 80,26.074 	"/>
	<polyline fill-rule="evenodd" clip-rule="evenodd" fill="#CCD6DC" points="79.982,27.136 52.441,27.136 52.441,1.294 	"/>
	<polygon fill-rule="evenodd" clip-rule="evenodd" fill="#FFFFFF" points="54.765,1 1,1 1,99 80,99 80,26.074 	"/>
	<path fill="#97A9B4" d="M69.891,39.981H9.96c-1.321,0-2.393-1.074-2.393-2.399s1.071-2.399,2.393-2.399h59.93
		c1.321,0,2.391,1.074,2.391,2.399S71.212,39.981,69.891,39.981z"/>
	<path fill="#97A9B4" d="M69.891,50.336H9.96c-1.321,0-2.393-1.074-2.393-2.399c0-1.326,1.071-2.399,2.393-2.399h59.93
		c1.321,0,2.391,1.074,2.391,2.399C72.281,49.262,71.212,50.336,69.891,50.336z"/>
	<path fill="#97A9B4" d="M69.891,60.689H9.96c-1.321,0-2.393-1.074-2.393-2.4c0-1.324,1.071-2.398,2.393-2.398h59.93
		c1.321,0,2.391,1.074,2.391,2.398C72.281,59.615,71.212,60.689,69.891,60.689z"/>
	<path fill="#97A9B4" d="M69.891,71.043H9.96c-1.321,0-2.393-1.074-2.393-2.398c0-1.326,1.071-2.4,2.393-2.4h59.93
		c1.321,0,2.391,1.074,2.391,2.4C72.281,69.969,71.212,71.043,69.891,71.043z"/>
	<path fill="#97A9B4" d="M52.658,81.438H9.96c-1.321,0-2.393-1.072-2.393-2.396c0-1.326,1.071-2.4,2.393-2.4h42.698
		c1.321,0,2.39,1.074,2.39,2.4C55.048,80.365,53.979,81.438,52.658,81.438z"/>
	<path fill="#97A9B4" d="M26.661,91.803H9.96c-1.321,0-2.393-1.074-2.393-2.398c0-1.326,1.071-2.4,2.393-2.4h16.7
		c1.322,0,2.393,1.074,2.393,2.4C29.053,90.729,27.983,91.803,26.661,91.803z"/>
	<path fill="#97A9B4" d="M26.661,23.772H9.96c-1.321,0-2.393-1.074-2.393-2.399s1.071-2.399,2.393-2.399h16.7
		c1.322,0,2.393,1.074,2.393,2.399S27.983,23.772,26.661,23.772z"/>
</g>
</svg>
