<svg xmlns="http://www.w3.org/2000/svg" width="100" height="85" viewBox="0 0 100 85"><path fill-rule="evenodd" clip-rule="evenodd" fill="#CCD6DC" d="M46.42 1H1v83h66.738V22.236z"/><path fill-rule="evenodd" clip-rule="evenodd" fill="#CCD6DC" d="M67.727 23.135h-23.27V1.25"/><path fill-rule="evenodd" clip-rule="evenodd" fill="#FFF" d="M46.42 1H1v83h66.738V22.236z"/><path d="M49.84 34.015H8.57c-1.116 0-2.02-.91-2.02-2.032s.904-2.033 2.02-2.033h41.27c1.118 0 2.023.91 2.023 2.032s-.905 2.033-2.022 2.033zm0 8.777H8.57c-1.116 0-2.02-.91-2.02-2.032s.904-2.032 2.02-2.032h41.27c1.118 0 2.023.91 2.023 2.032s-.905 2.032-2.022 2.032zm-8.892 8.778H8.57c-1.116 0-2.02-.91-2.02-2.03 0-1.124.904-2.034 2.02-2.034h32.378c1.116 0 2.02.91 2.02 2.033 0 1.12-.904 2.03-2.02 2.03zm0 8.778H8.57c-1.116 0-2.02-.908-2.02-2.03s.904-2.032 2.02-2.032h32.378c1.116 0 2.02.908 2.02 2.03s-.904 2.032-2.02 2.032zm-8.084 8.777H8.57a2.025 2.025 0 0 1-2.02-2.03c0-1.122.904-2.032 2.02-2.032h24.294c1.117 0 2.02.91 2.02 2.033a2.024 2.024 0 0 1-2.02 2.03zm3.234 8.78H8.57c-1.116 0-2.02-.91-2.02-2.03s.904-2.035 2.02-2.035h27.528c1.116 0 2.02.91 2.02 2.033s-.904 2.03-2.02 2.03z" fill="#97A9B4"/><path fill="#FDCA4E" d="M57.586 70.88c.04-.04.09-.077.13-.12l39.27-39.482a6.936 6.936 0 0 0 0-9.776l-5.58-5.61a6.846 6.846 0 0 0-9.722 0l-39.267 39.48c-.043.044-.08.09-.122.136l15.29 15.373z"/><path fill="#CCD6DC" d="M86.326 41.997l10.66-10.72c2.686-2.698 2.686-7.074 0-9.775l-5.58-5.61a6.846 6.846 0 0 0-9.723 0l-10.66 10.72 15.303 15.385z"/><path fill="#E9596E" d="M96.014 32.257l.973-.98c2.686-2.698 2.686-7.074 0-9.775l-5.58-5.61a6.846 6.846 0 0 0-9.723 0l-.973.98 15.305 15.385z"/><path fill="#97A9B4" d="M77.725 19.883l15.308 15.39"/><path fill="#878788" d="M92.176 36.136l-15.31-15.392 1.718-1.724L93.89 34.41z"/><path fill="#97A9B4" d="M74.082 23.544l15.31 15.392"/><path fill="#878788" d="M88.533 39.8L73.227 24.406l1.712-1.724 15.307 15.39z"/><path fill="#D99C81" d="M57.568 70.84l-20.84 5.613L42.312 55.5z"/><path fill="#1D1D1B" d="M36.728 76.453l5.744-1.547a7.852 7.852 0 0 0-4.205-4.226l-1.54 5.773z"/></svg>