<?xml version="1.0" encoding="utf-8"?>
<!-- Generator: Adobe Illustrator 16.0.0, SVG Export Plug-In . SVG Version: 6.00 Build 0)  -->
<!DOCTYPE svg PUBLIC "-//W3C//DTD SVG 1.1//EN" "http://www.w3.org/Graphics/SVG/1.1/DTD/svg11.dtd">
<svg version="1.1" id="Capa_1" xmlns="http://www.w3.org/2000/svg" xmlns:xlink="http://www.w3.org/1999/xlink" x="0px" y="0px"
	 width="100px" height="85px" viewBox="0 0 100 85" enable-background="new 0 0 100 85" xml:space="preserve">
<g>
	<polygon fill-rule="evenodd" clip-rule="evenodd" fill="#CCD6DC" points="46.42,1 1,1 1,84 67.738,84 67.738,22.236 	"/>
	<polyline fill-rule="evenodd" clip-rule="evenodd" fill="#CCD6DC" points="67.727,23.135 44.457,23.135 44.457,1.249 	"/>
	<polygon fill-rule="evenodd" clip-rule="evenodd" fill="#FFFFFF" points="46.42,1 1,1 1,84 67.738,84 67.738,22.236 	"/>
	<g>
		<path fill="#97A9B4" d="M49.841,34.015H8.57c-1.116,0-2.021-0.91-2.021-2.032S7.454,29.95,8.57,29.95h41.271
			c1.117,0,2.022,0.91,2.022,2.032S50.958,34.015,49.841,34.015z"/>
		<path fill="#97A9B4" d="M49.841,42.792H8.57c-1.116,0-2.021-0.91-2.021-2.032s0.905-2.032,2.021-2.032h41.271
			c1.117,0,2.022,0.91,2.022,2.032S50.958,42.792,49.841,42.792z"/>
		<path fill="#97A9B4" d="M40.948,51.57H8.57c-1.116,0-2.021-0.91-2.021-2.031c0-1.123,0.905-2.033,2.021-2.033h32.378
			c1.116,0,2.021,0.91,2.021,2.033C42.969,50.66,42.064,51.57,40.948,51.57z"/>
		<path fill="#97A9B4" d="M40.948,60.348H8.57c-1.116,0-2.021-0.908-2.021-2.031s0.905-2.031,2.021-2.031h32.378
			c1.116,0,2.021,0.908,2.021,2.031S42.064,60.348,40.948,60.348z"/>
		<path fill="#97A9B4" d="M32.864,69.125H8.57c-1.116,0-2.021-0.908-2.021-2.029c0-1.123,0.905-2.033,2.021-2.033h24.294
			c1.117,0,2.021,0.91,2.021,2.033C34.886,68.217,33.981,69.125,32.864,69.125z"/>
		<path fill="#97A9B4" d="M36.098,77.904H8.57c-1.116,0-2.021-0.908-2.021-2.031S7.454,73.84,8.57,73.84h27.528
			c1.116,0,2.021,0.91,2.021,2.033S37.214,77.904,36.098,77.904z"/>
	</g>
	<g>
		<g>
			<path fill="#FDCA4E" d="M57.586,70.881c0.041-0.041,0.09-0.078,0.131-0.121l39.27-39.482c2.686-2.699,2.686-7.075,0-9.776
				l-5.58-5.609c-2.686-2.701-7.037-2.701-9.723,0L42.417,55.373c-0.043,0.043-0.08,0.09-0.122,0.135L57.586,70.881z"/>
			<path fill="#CCD6DC" d="M86.326,41.997l10.66-10.719c2.686-2.699,2.686-7.075,0-9.776l-5.58-5.609
				c-2.686-2.701-7.037-2.701-9.723,0l-10.66,10.72L86.326,41.997z"/>
			<path fill="#E9596E" d="M96.014,32.257l0.973-0.979c2.686-2.699,2.686-7.075,0-9.776l-5.58-5.609
				c-2.686-2.701-7.037-2.701-9.723,0l-0.973,0.978L96.014,32.257z"/>
			<g>
				<line fill="#97A9B4" x1="77.725" y1="19.883" x2="93.033" y2="35.274"/>
				<polygon fill="#878788" points="92.176,36.136 76.867,20.744 78.584,19.02 93.891,34.411 				"/>
			</g>
			<g>
				<line fill="#97A9B4" x1="74.082" y1="23.544" x2="89.391" y2="38.936"/>
				<polygon fill="#878788" points="88.533,39.799 73.227,24.407 74.939,22.683 90.248,38.074 				"/>
			</g>
		</g>
		<polygon fill="#D99C81" points="57.568,70.84 36.728,76.453 42.312,55.5 		"/>
		<path fill="#1D1D1B" d="M36.728,76.453l5.744-1.547c-0.385-0.918-0.945-1.781-1.689-2.529c-0.745-0.748-1.602-1.311-2.516-1.697
			L36.728,76.453z"/>
	</g>
</g>
</svg>
