<?xml version="1.0" encoding="utf-8"?>
<!-- Generator: Adobe Illustrator 16.0.0, SVG Export Plug-In . SVG Version: 6.00 Build 0)  -->
<!DOCTYPE svg PUBLIC "-//W3C//DTD SVG 1.1//EN" "http://www.w3.org/Graphics/SVG/1.1/DTD/svg11.dtd">
<svg version="1.1" id="Capa_1" xmlns="http://www.w3.org/2000/svg" xmlns:xlink="http://www.w3.org/1999/xlink" x="0px" y="0px"
	 width="82px" height="100px" viewBox="0 0 82 100" enable-background="new 0 0 82 100" xml:space="preserve">
<g>
	<path fill="#2F5BA5" d="M45.006,99.005C20.742,99.005,1,79.27,1,55.012C1,25.232,25.234,1.005,55.021,1.005
		c2.18,0,3.947,1.767,3.947,3.945s-1.768,3.943-3.947,3.943c-25.437,0-46.131,20.689-46.131,46.118
		c0,19.908,16.202,36.105,36.115,36.105c15.498,0,28.105-12.604,28.105-28.096c0-11.958-9.734-21.688-21.693-21.688
		c-9.137,0-16.568,7.43-16.568,16.561c0,6.871,5.592,12.46,12.462,12.46c5.064,0,9.184-4.118,9.184-9.179
		c0-3.614-2.941-6.556-6.557-6.556c-2.457,0-4.457,1.998-4.457,4.456c0,2.179-1.766,3.943-3.945,3.943
		c-2.178,0-3.944-1.765-3.944-3.943c0-6.805,5.538-12.344,12.347-12.344c7.965,0,14.449,6.479,14.449,14.443
		c0,9.41-7.66,17.066-17.076,17.066c-11.222,0-20.353-9.127-20.353-20.348c0-13.48,10.971-24.449,24.458-24.449
		C67.727,33.445,81,46.714,81,63.021C81,82.863,64.855,99.005,45.006,99.005z"/>
</g>
</svg>
