<svg xmlns="http://www.w3.org/2000/svg" width="82" height="100" viewBox="0 0 82 100"><path fill="#2F5BA5" d="M45.006 99.005C20.742 99.005 1 79.27 1 55.012 1 25.232 25.234 1.005 55.02 1.005c2.18 0 3.948 1.767 3.948 3.945S57.2 8.893 55.02 8.893c-25.436 0-46.13 20.69-46.13 46.118 0 19.91 16.202 36.106 36.115 36.106 15.498 0 28.105-12.604 28.105-28.096 0-11.958-9.734-21.688-21.693-21.688-9.137 0-16.568 7.43-16.568 16.56 0 6.872 5.59 12.46 12.46 12.46 5.065 0 9.185-4.117 9.185-9.178a6.564 6.564 0 0 0-6.557-6.556 4.46 4.46 0 0 0-4.457 4.456 3.943 3.943 0 0 1-3.944 3.943 3.943 3.943 0 0 1-3.944-3.943c0-6.805 5.538-12.344 12.347-12.344 7.964 0 14.448 6.48 14.448 14.443 0 9.41-7.66 17.066-17.076 17.066-11.222 0-20.353-9.128-20.353-20.35 0-13.48 10.97-24.448 24.457-24.448C67.727 33.445 81 46.714 81 63.022c0 19.84-16.145 35.983-35.994 35.983z"/></svg>