<?xml version="1.0" encoding="utf-8"?>
<!-- Generator: Adobe Illustrator 16.0.0, SVG Export Plug-In . SVG Version: 6.00 Build 0)  -->
<!DOCTYPE svg PUBLIC "-//W3C//DTD SVG 1.1//EN" "http://www.w3.org/Graphics/SVG/1.1/DTD/svg11.dtd">
<svg version="1.1" id="Capa_1" xmlns="http://www.w3.org/2000/svg" xmlns:xlink="http://www.w3.org/1999/xlink" x="0px" y="0px"
	 width="100px" height="64px" viewBox="0 0 100 64" enable-background="new 0 0 100 64" xml:space="preserve">
<g>
	<g>
		<path d="M32.126,25.861v12.276c0,0,11.958-0.015,16.828-0.015c-2.637,7.958-6.737,12.292-16.828,12.292
			c-10.212,0-18.183-8.244-18.183-18.415c0-10.17,7.97-18.416,18.183-18.416c5.399,0,8.886,1.891,12.084,4.525
			c2.561-2.55,2.347-2.914,8.861-9.04C47.542,4.056,40.192,1,32.126,1C14.936,1,1,14.879,1,32s13.936,31,31.126,31
			c25.694,0,31.975-22.283,29.893-37.139C55.936,25.861,32.126,25.861,32.126,25.861z M88.214,26.475V15.732H80.51v10.743H69.415
			v7.673H80.51v11.05h7.704v-11.05H99v-7.673H88.214z"/>
	</g>
</g>
</svg>
