<svg xmlns="http://www.w3.org/2000/svg" width="100" height="64" viewBox="0 0 100 64"><path d="M32.126 25.86v12.277s11.958-.015 16.828-.015c-2.637 7.958-6.737 12.292-16.828 12.292-10.212 0-18.183-8.244-18.183-18.415 0-10.17 7.97-18.417 18.183-18.417 5.4 0 8.886 1.89 12.084 4.525 2.56-2.55 2.347-2.914 8.86-9.04A31.084 31.084 0 0 0 32.127 1C14.936 1 1 14.88 1 32s13.936 31 31.126 31C57.82 63 64.1 40.717 62.02 25.86H32.125zm56.088.615V15.732H80.51v10.743H69.415v7.673H80.51v11.05h7.704v-11.05H99v-7.673H88.214z"/></svg>