<svg xmlns="http://www.w3.org/2000/svg" width="100" height="90" viewBox="0 0 100 90"><path fill="#A7A9AD" d="M99 70.678a2.326 2.326 0 0 1-2.328 2.324H3.328A2.326 2.326 0 0 1 1 70.678V3.328A2.327 2.327 0 0 1 3.328 1h93.344A2.327 2.327 0 0 1 99 3.327v67.35z"/><path fill="#171717" d="M99 62.002V3.327A2.327 2.327 0 0 0 96.672 1H3.328A2.327 2.327 0 0 0 1 3.327v58.675h98z"/><path fill="#494748" d="M6.233 6.344h86.88V55.88H6.233z"/><path fill="#A7A9AD" d="M37.252 72.896H62.75V87.1H37.25z"/><path fill="#777778" d="M67.505 89h-35.49a1.64 1.64 0 0 1 0-3.284h35.49a1.642 1.642 0 0 1 0 3.284z"/></svg>