<?xml version="1.0" encoding="utf-8"?>
<!-- Generator: Adobe Illustrator 16.0.0, SVG Export Plug-In . SVG Version: 6.00 Build 0)  -->
<!DOCTYPE svg PUBLIC "-//W3C//DTD SVG 1.1//EN" "http://www.w3.org/Graphics/SVG/1.1/DTD/svg11.dtd">
<svg version="1.1" id="Capa_1" xmlns="http://www.w3.org/2000/svg" xmlns:xlink="http://www.w3.org/1999/xlink" x="0px" y="0px"
	 width="100px" height="90px" viewBox="0 0 100 90" enable-background="new 0 0 100 90" xml:space="preserve">
<g>
	<g>
		<path fill="#A7A9AD" d="M99,70.678c0,1.283-1.042,2.324-2.328,2.324H3.328C2.042,73.002,1,71.961,1,70.678V3.327
			C1,2.042,2.042,1,3.328,1h93.344C97.958,1,99,2.042,99,3.327V70.678z"/>
		<path fill="#171717" d="M99,62.002V3.327C99,2.042,97.958,1,96.672,1H3.328C2.042,1,1,2.042,1,3.327v58.675H99z"/>
		<rect x="6.233" y="6.344" fill="#494748" width="86.88" height="49.535"/>
	</g>
	<rect x="37.252" y="72.896" fill="#A7A9AD" width="25.497" height="14.205"/>
	<path fill="#777778" d="M67.505,89H32.016c-0.908,0-1.643-0.734-1.643-1.641c0-0.908,0.734-1.643,1.643-1.643h35.489
		c0.908,0,1.643,0.734,1.643,1.643C69.147,88.266,68.413,89,67.505,89z"/>
</g>
</svg>
