<svg xmlns="http://www.w3.org/2000/svg" width="100" height="91" viewBox="0 0 100 91"><path fill="#E1E1E1" d="M50 1C22.938 1 1 17.46 1 37.766c0 11.12 6.587 21.076 16.98 27.817C17.96 74.82 13.954 83.303 7.274 90c12.63-2.2 23.434-8.303 30.364-16.65A64.63 64.63 0 0 0 50 74.534c27.063 0 49-16.46 49-36.766C99 17.46 77.063 1 50 1z"/><path fill="#97A9B4" d="M46.642 55.616v-23.36A3.352 3.352 0 0 1 50 28.908a3.353 3.353 0 0 1 3.358 3.345v23.36a3.353 3.353 0 0 1-3.36 3.35 3.353 3.353 0 0 1-3.356-3.35z"/><ellipse fill="#97A9B4" cx="50" cy="20.214" rx="4.876" ry="4.859"/></svg>