<?xml version="1.0" encoding="utf-8"?>
<!-- Generator: Adobe Illustrator 16.0.0, SVG Export Plug-In . SVG Version: 6.00 Build 0)  -->
<!DOCTYPE svg PUBLIC "-//W3C//DTD SVG 1.1//EN" "http://www.w3.org/Graphics/SVG/1.1/DTD/svg11.dtd">
<svg version="1.1" id="Capa_1" xmlns="http://www.w3.org/2000/svg" xmlns:xlink="http://www.w3.org/1999/xlink" x="0px" y="0px"
	 width="100px" height="91px" viewBox="0 0 100 91" enable-background="new 0 0 100 91" xml:space="preserve">
<g>
	<g>
		<path fill="#E1E1E1" d="M50,1C22.938,1,1,17.461,1,37.766c0,11.12,6.587,21.076,16.98,27.817
			C17.961,74.821,13.954,83.303,7.274,90c12.629-2.199,23.434-8.303,30.364-16.649c3.949,0.77,8.092,1.182,12.362,1.182
			c27.063,0,49-16.46,49-36.766C99,17.461,77.063,1,50,1z"/>
	</g>
	<path fill="#97A9B4" d="M46.642,55.616V32.255c0-1.848,1.504-3.346,3.357-3.346c1.855,0,3.359,1.498,3.359,3.346v23.361
		c0,1.852-1.504,3.35-3.359,3.35C48.146,58.966,46.642,57.468,46.642,55.616z"/>
	<ellipse fill="#97A9B4" cx="50" cy="20.214" rx="4.876" ry="4.859"/>
</g>
</svg>
