<?xml version="1.0" encoding="utf-8"?>
<!-- Generator: Adobe Illustrator 16.0.0, SVG Export Plug-In . SVG Version: 6.00 Build 0)  -->
<!DOCTYPE svg PUBLIC "-//W3C//DTD SVG 1.1//EN" "http://www.w3.org/Graphics/SVG/1.1/DTD/svg11.dtd">
<svg version="1.1" id="Capa_1" xmlns="http://www.w3.org/2000/svg" xmlns:xlink="http://www.w3.org/1999/xlink" x="0px" y="0px"
	 width="96px" height="100px" viewBox="0 0 96 100" enable-background="new 0 0 96 100" xml:space="preserve">
<g>
	<path fill="#C9B6AA" d="M94.007,67.027L83.093,55.973c0.61-1.252,3.258-11.208,2.613-12.958L77.81,22.232
		c-1.446-3.935-5.803-5.953-9.736-4.508c-3.932,1.447-5.945,5.809-4.504,9.743l2.073,5.455l-6.767-6.524l-0.079,0.079L35.617,2.992
		c-2.456-2.424-6.41-2.398-8.834,0.058c-2.423,2.457-2.398,6.415,0.057,8.841l-2.221-2.396c-0.613-1.209-1.554-2.221-2.707-2.918
		l-0.04-0.043c-0.045-0.026-0.092-0.041-0.137-0.064c-0.3-0.17-0.614-0.318-0.94-0.445h-0.004c-0.808-0.313-1.684-0.494-2.603-0.494
		c-3.983,0-7.211,3.232-7.211,7.218c0,1.892,0.734,3.61,1.925,4.896l-0.039-0.008l3.391,3.393c-0.302-0.191-0.616-0.359-0.939-0.494
		c-2.331-0.977-5.116-0.533-7.026,1.357c-2.536,2.508-2.562,6.599-0.055,9.14l22.51,23.177l-0.768,0.76L11.353,36.27
		c-2.348-2.377-6.178-2.401-8.555-0.052c-2.376,2.35-2.4,6.183-0.052,8.56c0,0,31.594,31.825,37.036,37.339
		c3.215,3.256,7.119,3.215,9.855,2.625l13.064,13.234c1.337,1.352,3.516,1.367,4.867,0.029l26.408-26.107
		C95.329,70.561,95.342,68.381,94.007,67.027z"/>
	<path fill="#FBEEDE" d="M36.091,2.717l29.31,29.691l-1.881-5.124c-1.363-3.708,0.538-7.821,4.244-9.183
		c3.706-1.364,7.813,0.537,9.176,4.246l7.148,19.463c0.729,1.988,0.253,3.496-0.405,5.824c0,0-1.827,6.094-3.127,9.04l10.232,10.365
		c1.292,1.305,1.354,3.336,0.142,4.533L67.282,94.955c-1.213,1.197-3.241,1.109-4.528-0.199L48.876,80.701
		c-2.677,0.539-6.542,0.529-9.785-2.756c-2.551-2.584-7.734-7.955-12.519-12.934c-0.167-0.133-0.341-0.254-0.496-0.41L4.634,43.045
		c-2.078-2.104-2.058-5.498,0.046-7.578c2.104-2.081,5.495-2.06,7.574,0.045l13.807,13.821l0.566-0.559L8.659,30.744
		c-2.377-2.407-2.353-6.286,0.053-8.663c2.404-2.377,6.281-2.354,8.657,0.051l17.969,18.03l0.507-0.5l-21.922-21.89
		c-2.678-2.712-2.651-7.084,0.059-9.762c2.71-2.68,7.077-2.654,9.755,0.058l21.92,21.89l0.552-0.545L27.875,10.841
		c-2.242-2.272-2.22-5.929,0.049-8.173C30.192,0.424,33.849,0.448,36.091,2.717z"/>
</g>
</svg>
