<svg xmlns="http://www.w3.org/2000/svg" width="96" height="100" viewBox="0 0 96 100"><path fill="#C9B6AA" d="M94.007 67.027L83.093 55.973c.61-1.252 3.258-11.208 2.613-12.958L77.81 22.232a7.585 7.585 0 0 0-9.736-4.508c-3.932 1.447-5.945 5.81-4.504 9.743l2.073 5.455-6.767-6.524-.08.08L35.616 2.99a6.246 6.246 0 0 0-8.832.058 6.256 6.256 0 0 0 .057 8.84l-2.22-2.395a7.237 7.237 0 0 0-2.707-2.918l-.04-.043c-.045-.026-.092-.04-.137-.064-.3-.17-.614-.318-.94-.445h-.004a7.19 7.19 0 0 0-2.602-.494 7.214 7.214 0 0 0-7.21 7.22c0 1.89.733 3.61 1.924 4.894l-.04-.008 3.392 3.393a6.335 6.335 0 0 0-.94-.495 6.438 6.438 0 0 0-7.025 1.357 6.467 6.467 0 0 0-.055 9.14l22.51 23.177-.768.76-18.623-18.7a6.048 6.048 0 0 0-8.555-.053 6.056 6.056 0 0 0-.053 8.56s31.594 31.825 37.036 37.34c3.215 3.255 7.12 3.214 9.855 2.624L62.7 97.977a3.44 3.44 0 0 0 4.868.03l26.408-26.108a3.446 3.446 0 0 0 .03-4.87z"/><path fill="#FBEEDE" d="M36.09 2.717l29.31 29.69-1.88-5.123a7.155 7.155 0 0 1 4.244-9.183 7.146 7.146 0 0 1 9.176 4.248l7.148 19.463c.73 1.99.253 3.497-.405 5.825 0 0-1.827 6.094-3.127 9.04L90.788 67.04c1.292 1.304 1.354 3.335.142 4.532L67.282 94.955c-1.213 1.197-3.24 1.11-4.528-.2L48.876 80.702c-2.677.54-6.542.53-9.785-2.755-2.55-2.584-7.732-7.955-12.517-12.934-.167-.132-.34-.253-.496-.41L4.634 43.046a5.36 5.36 0 0 1 .046-7.578 5.353 5.353 0 0 1 7.574.045l13.807 13.82.568-.558L8.66 30.745a6.127 6.127 0 0 1 .052-8.664 6.12 6.12 0 0 1 8.657.053l17.967 18.03.507-.5-21.922-21.89a6.906 6.906 0 0 1 .06-9.762 6.894 6.894 0 0 1 9.754.06l21.92 21.89.552-.546L27.874 10.84a5.782 5.782 0 0 1 .05-8.172 5.773 5.773 0 0 1 8.166.05z"/></svg>