<svg xmlns="http://www.w3.org/2000/svg" width="85" height="100" viewBox="0 0 85 100"><path fill="#F73E3E" d="M7.218 48.42h29.075c3.422 0 6.22-2.79 6.22-6.203v-.783c0-3.412-2.798-6.205-6.22-6.205H7.218C3.798 35.23 1 38.02 1 41.433v.783c0 3.412 2.797 6.203 6.218 6.203zM38.61 59.14v-.784c0-3.412-2.796-6.205-6.22-6.205H10.775c-3.42 0-6.22 2.794-6.22 6.206v.783c0 3.413 2.8 6.206 6.22 6.206h21.617c3.422 0 6.22-2.793 6.22-6.207zM13.875 32.077H38.44c3.42 0 6.216-2.788 6.216-6.2v-.782c0-3.414-2.797-6.203-6.217-6.203H13.873c-3.42 0-6.218 2.79-6.218 6.203v.783c0 3.41 2.8 6.198 6.218 6.198zm6.444-17.887h16.95c3.42 0 6.218-2.79 6.218-6.2V7.2c0-3.408-2.797-6.2-6.22-6.2H20.32c-3.424 0-4.66 2.792-4.66 6.2v.787c-.002 3.41 1.237 6.2 4.66 6.2zm20.04 2.164c4.022.883 7.042 4.457 7.042 8.727v.788c0 3.822-2.424 7.083-5.814 8.354 2.22 1.633 3.668 4.246 3.668 7.197v.784c0 4.505-3.355 8.23-7.707 8.843 2.3 1.62 3.807 4.28 3.807 7.3v.783c0 4.926-4.02 8.938-8.963 8.938h-1.263c-1.436 1.8-.744 1.34-1.873 2.767-3.94 4.987-13.895 17.735-8.98 23.765 4.91 6.03 8.836 6.164 16.537-1.46 3.152-3.118 2.9-3.086 8.475-9.254 4.87-5.388 13.95-18.565 33.147-23.487.4-.065.793-.163 1.166-.294.02-.004.033-.008.05-.013v-.006C82.185 59.174 84 56.76 84 53.917v-33.68c0-3.414-2.645-5.376-5.953-8.068C73.947 8.466 62.07-.43 43.897 1.194c1.442 1.59 2.333 3.69 2.333 5.998v.787c0 3.84-2.45 7.114-5.87 8.374z"/></svg>