<?xml version="1.0" encoding="utf-8"?>
<!-- Generator: Adobe Illustrator 16.0.0, SVG Export Plug-In . SVG Version: 6.00 Build 0)  -->
<!DOCTYPE svg PUBLIC "-//W3C//DTD SVG 1.1//EN" "http://www.w3.org/Graphics/SVG/1.1/DTD/svg11.dtd">
<svg version="1.1" id="Capa_1" xmlns="http://www.w3.org/2000/svg" xmlns:xlink="http://www.w3.org/1999/xlink" x="0px" y="0px"
	 width="85px" height="100px" viewBox="0 0 85 100" enable-background="new 0 0 85 100" xml:space="preserve">
<g>
	<path fill="#F73E3E" d="M7.218,48.42h29.075c3.422,0,6.221-2.791,6.221-6.203v-0.783c0-3.412-2.799-6.205-6.221-6.205H7.218
		C3.797,35.229,1,38.021,1,41.434v0.783C1,45.629,3.797,48.42,7.218,48.42z M38.611,59.139v-0.783c0-3.412-2.797-6.205-6.221-6.205
		H10.775c-3.42,0-6.219,2.793-6.219,6.205v0.783c0,3.414,2.799,6.207,6.219,6.207h21.617C35.814,65.346,38.611,62.553,38.611,59.139
		z M13.874,32.078h24.565c3.42,0,6.217-2.788,6.217-6.199v-0.783c0-3.414-2.797-6.203-6.217-6.203H13.874
		c-3.419,0-6.218,2.789-6.218,6.203v0.783C7.656,29.29,10.455,32.078,13.874,32.078z M20.318,14.191h16.949
		c3.422,0,6.219-2.791,6.219-6.202V7.202c0-3.408-2.797-6.199-6.219-6.199H20.318c-3.424,0-4.66,2.791-4.66,6.199v0.787
		C15.656,11.4,16.895,14.191,20.318,14.191z M40.359,16.354c4.021,0.883,7.041,4.457,7.041,8.727v0.787
		c0,3.822-2.424,7.083-5.814,8.354c2.219,1.633,3.668,4.246,3.668,7.197v0.785c0,4.505-3.355,8.229-7.707,8.843
		c2.301,1.619,3.807,4.281,3.807,7.3v0.783c0,4.926-4.021,8.938-8.963,8.938h-1.264c-1.436,1.801-0.744,1.341-1.873,2.767
		c-3.939,4.987-13.895,17.735-8.98,23.765c4.91,6.029,8.836,6.164,16.537-1.459c3.151-3.119,2.898-3.087,8.474-9.255
		c4.87-5.388,13.95-18.565,33.147-23.487c0.401-0.064,0.793-0.162,1.166-0.293c0.019-0.004,0.033-0.008,0.051-0.013v-0.006
		C82.184,59.174,84,56.76,84,53.917V20.236c0-3.413-2.645-5.375-5.953-8.067C73.947,8.467,62.07-0.428,43.898,1.195
		c1.441,1.591,2.332,3.689,2.332,5.998V7.98C46.23,11.82,43.779,15.094,40.359,16.354z"/>
</g>
</svg>
