<svg xmlns="http://www.w3.org/2000/svg" width="85" height="100" viewBox="0 0 85 100"><path fill="#F73E3E" d="M7.218 48.42h29.075c3.422 0 6.22-2.79 6.22-6.203v-.783c0-3.412-2.798-6.205-6.22-6.205H7.218C3.798 35.23 1 38.02 1 41.432v.783c0 3.412 2.797 6.203 6.218 6.203zM38.61 59.14v-.784c0-3.412-2.796-6.205-6.22-6.205H10.775c-3.42 0-6.22 2.795-6.22 6.207v.783c0 3.413 2.8 6.206 6.22 6.206h21.617c3.422 0 6.22-2.793 6.22-6.207zM13.875 32.077H38.44c3.42 0 6.216-2.788 6.216-6.2v-.782c0-3.414-2.797-6.203-6.217-6.203H13.872c-3.42 0-6.218 2.79-6.218 6.203v.783c0 3.41 2.8 6.198 6.218 6.198zM20.32 14.19h16.95c3.42 0 6.217-2.79 6.217-6.2V7.2c0-3.408-2.797-6.2-6.22-6.2H20.32c-3.424 0-4.66 2.792-4.66 6.2v.787c-.002 3.41 1.237 6.2 4.66 6.2zm20.04 2.164c4.02.883 7.04 4.457 7.04 8.727v.79c0 3.82-2.423 7.082-5.813 8.353 2.22 1.633 3.668 4.246 3.668 7.197v.784c0 4.505-3.355 8.23-7.707 8.843 2.3 1.62 3.807 4.28 3.807 7.3v.783c0 4.926-4.02 8.938-8.963 8.938H31.13c-1.437 1.8-.745 1.34-1.874 2.767-3.94 4.987-13.895 17.735-8.98 23.765 4.91 6.03 8.836 6.164 16.537-1.46 3.152-3.118 2.9-3.086 8.475-9.254 4.87-5.388 13.95-18.565 33.147-23.487a6.84 6.84 0 0 0 1.166-.295c.02-.004.034-.008.05-.013v-.006c2.535-.912 4.35-3.326 4.35-6.17v-33.68c0-3.413-2.645-5.375-5.953-8.067-4.1-3.704-15.977-12.6-34.15-10.976a8.905 8.905 0 0 1 2.333 5.998v.787c0 3.84-2.45 7.113-5.87 8.373z"/></svg>