<svg xmlns="http://www.w3.org/2000/svg" width="85" height="100" viewBox="0 0 85 100"><path fill="#5CBB00" d="M77.782 51.58H48.707c-3.422 0-6.22 2.79-6.22 6.203v.783c0 3.412 2.798 6.205 6.22 6.205h29.075c3.42 0 6.218-2.79 6.218-6.203v-.783c0-3.412-2.797-6.203-6.218-6.203zM46.39 40.862v.783c0 3.41 2.796 6.205 6.22 6.205h21.615c3.42 0 6.22-2.793 6.22-6.205v-.783c0-3.415-2.8-6.207-6.22-6.207H52.607c-3.42 0-6.218 2.792-6.218 6.207zm24.736 27.06H46.56c-3.42 0-6.216 2.788-6.216 6.2v.782c0 3.414 2.797 6.203 6.217 6.203h24.567c3.42 0 6.218-2.79 6.218-6.203v-.783c0-3.41-2.8-6.197-6.218-6.197zM64.682 85.81h-16.95c-3.422 0-6.22 2.79-6.22 6.2v.788c0 3.408 2.798 6.2 6.22 6.2h16.95c3.423 0 4.66-2.792 4.66-6.2v-.787c.002-3.41-1.237-6.2-4.66-6.2zm-20.04-2.164C40.62 82.764 37.6 79.19 37.6 74.92v-.787c0-3.822 2.424-7.083 5.814-8.354-2.218-1.635-3.668-4.248-3.668-7.2v-.784c0-4.505 3.355-8.23 7.707-8.843-2.3-1.62-3.807-4.28-3.807-7.3v-.783c0-4.924 4.02-8.936 8.963-8.936h1.262c1.436-1.8.744-1.34 1.873-2.767 3.94-4.988 13.895-17.736 8.98-23.765-4.91-6.03-8.836-6.163-16.537 1.46-3.152 3.118-2.9 3.086-8.474 9.254-4.87 5.388-13.95 18.566-33.147 23.488-.403.064-.794.16-1.168.292l-.05.013v.004C2.815 40.824 1 43.24 1 46.084v33.68c0 3.413 2.645 5.375 5.953 8.067 4.1 3.704 15.976 12.6 34.15 10.976a8.906 8.906 0 0 1-2.333-5.998v-.787c0-3.84 2.45-7.113 5.87-8.373z"/></svg>