<?xml version="1.0" encoding="utf-8"?>
<!-- Generator: Adobe Illustrator 16.0.0, SVG Export Plug-In . SVG Version: 6.00 Build 0)  -->
<!DOCTYPE svg PUBLIC "-//W3C//DTD SVG 1.1//EN" "http://www.w3.org/Graphics/SVG/1.1/DTD/svg11.dtd">
<svg version="1.1" id="Capa_1" xmlns="http://www.w3.org/2000/svg" xmlns:xlink="http://www.w3.org/1999/xlink" x="0px" y="0px"
	 width="85px" height="100px" viewBox="0 0 85 100" enable-background="new 0 0 85 100" xml:space="preserve">
<g>
	<path fill="#5CBB00" d="M77.782,51.58H48.707c-3.422,0-6.221,2.791-6.221,6.203v0.783c0,3.412,2.799,6.205,6.221,6.205h29.075
		c3.421,0,6.218-2.793,6.218-6.205v-0.783C84,54.371,81.203,51.58,77.782,51.58z M46.389,40.862v0.783
		c0,3.411,2.797,6.205,6.221,6.205h21.615c3.42,0,6.219-2.793,6.219-6.205v-0.783c0-3.415-2.799-6.207-6.219-6.207H52.607
		C49.186,34.655,46.389,37.447,46.389,40.862z M71.126,67.922H46.561c-3.42,0-6.217,2.788-6.217,6.199v0.783
		c0,3.414,2.797,6.203,6.217,6.203h24.565c3.419,0,6.218-2.789,6.218-6.203v-0.783C77.344,70.71,74.545,67.922,71.126,67.922z
		 M64.682,85.809H47.732c-3.422,0-6.219,2.791-6.219,6.202v0.787c0,3.408,2.797,6.199,6.219,6.199h16.949
		c3.424,0,4.661-2.791,4.661-6.199v-0.787C69.344,88.6,68.105,85.809,64.682,85.809z M44.641,83.646
		C40.62,82.764,37.6,79.189,37.6,74.92v-0.787c0-3.822,2.424-7.083,5.814-8.354c-2.218-1.633-3.668-4.246-3.668-7.197v-0.785
		c0-4.505,3.355-8.229,7.707-8.843c-2.301-1.619-3.807-4.281-3.807-7.299v-0.784c0-4.925,4.021-8.937,8.963-8.937h1.264
		c1.436-1.801,0.744-1.341,1.873-2.767c3.939-4.988,13.895-17.736,8.98-23.765c-4.91-6.029-8.836-6.163-16.537,1.459
		c-3.151,3.119-2.898,3.087-8.473,9.255c-4.871,5.388-13.95,18.566-33.147,23.488c-0.402,0.064-0.793,0.161-1.167,0.292
		c-0.018,0.005-0.033,0.008-0.05,0.013v0.006C2.816,40.826,1,43.24,1,46.083v33.681c0,3.413,2.645,5.375,5.953,8.067
		c4.1,3.702,15.976,12.597,34.149,10.974c-1.442-1.591-2.332-3.69-2.332-5.998V92.02C38.77,88.18,41.22,84.906,44.641,83.646z"/>
</g>
</svg>
