<?xml version="1.0" encoding="utf-8"?>
<!-- Generator: Adobe Illustrator 16.0.0, SVG Export Plug-In . SVG Version: 6.00 Build 0)  -->
<!DOCTYPE svg PUBLIC "-//W3C//DTD SVG 1.1//EN" "http://www.w3.org/Graphics/SVG/1.1/DTD/svg11.dtd">
<svg version="1.1" id="Capa_1" xmlns="http://www.w3.org/2000/svg" xmlns:xlink="http://www.w3.org/1999/xlink" x="0px" y="0px"
	 width="71px" height="100px" viewBox="0 0 71 100" enable-background="new 0 0 71 100" xml:space="preserve">
<g>
	<path fill="#F0BD8E" d="M65.721,71.131c1.775-6.475,2.164-12.562,1.422-17.195c-0.041-0.348-0.1-0.695-0.195-1.041
		c-0.285-1.363-0.662-2.594-1.152-3.629c-0.162-0.35-0.357-0.659-0.566-0.944l-9.564-24.908L43.66,5.665
		c-2.035-3.008-6.121-3.794-9.124-1.757c-2.548,1.729-3.492,4.933-2.478,7.702l-0.207-0.151c-2.919-2.153-7.033-1.527-9.181,1.398
		c-2.152,2.926-1.526,7.043,1.397,9.196l10.321,7.605l2.724,5.974c-3.377-1.684-7.182-2.637-11.204-2.637
		c-5.635,0-11.173,1.918-15.593,5.401c-2.851,2.245-3.345,6.38-1.102,9.235c2.244,2.854,6.372,3.348,9.223,1.103
		c2.147-1.691,4.731-2.585,7.472-2.585c6.67,0,12.099,5.435,12.099,12.114c0,6.678-5.429,12.113-12.099,12.113
		c-5.812,0-10.811-4.141-11.886-9.842c-0.674-3.57-4.111-5.918-7.674-5.238c-3.566,0.672-5.909,4.113-5.233,7.686
		c0.12,0.639,0.27,1.268,0.438,1.889c-0.013-0.004-0.04-0.018-0.04-0.018s-0.104,5.674,2.824,8.596
		c1.53,1.523,3.666,4.252,5.631,6.705c1.746,2.559,4.329,5.625,7.817,8.264c0.899,1.855,5.992,10.729,21.015,10.582
		c16.773-0.164,24.258-4.77,26.078-15.199c1.867-10.668,0.598-11.34,0.598-11.34L65.721,71.131z"/>
	<path fill="#FBEEDE" d="M2.619,67.801c1.012,4.256,4.468,7.078,7.719,6.307c3.251-0.777,5.067-4.854,4.056-9.113
		c-1.012-4.256-4.466-7.08-7.719-6.305C3.424,59.463,1.607,63.543,2.619,67.801z"/>
	<path fill="#FBEEDE" d="M69.055,69.029l-0.17,0.062C69.605,66.418,70,63.607,70,60.705c0-5.145-1.219-9.999-3.371-14.306
		L58.27,24.782L44.025,3.726c-1.92-2.838-5.773-3.578-8.606-1.658c-2.832,1.922-3.574,5.781-1.654,8.617l1.854,2.74l-3.523-2.595
		c-2.756-2.031-6.635-1.439-8.663,1.322c-2.028,2.76-1.437,6.643,1.318,8.673l12.684,9.343l2.592,5.68
		c-3.715-2.241-8.06-3.532-12.704-3.532c-5.594,0-10.869,1.827-15.256,5.283c-2.258,1.779-2.647,5.056-0.871,7.317
		c1.777,2.262,5.051,2.651,7.309,0.873c2.533-1.998,5.583-3.053,8.818-3.053c7.875,0,14.28,6.414,14.28,14.297
		c0,7.885-6.406,14.301-14.28,14.301c-6.856,0-12.757-4.887-14.028-11.619c-0.535-2.828-3.257-4.686-6.081-4.152
		c-2.824,0.533-4.68,3.262-4.145,6.088c0.811,4.303,2.722,8.166,5.398,11.332c2.385,5.75,6.399,10.65,11.462,14.133l-0.025,0.008
		c0,0,3.906,9.85,18.804,9.707c14.902-0.146,24.557-6.799,26.148-16.066c0.266-1.541,0.557-2.879,0.863-4.061
		c1.33-2.309,2.381-4.797,3.109-7.418C68.969,69.109,69.055,69.029,69.055,69.029z"/>
</g>
</svg>
