<svg xmlns="http://www.w3.org/2000/svg" width="71" height="100" viewBox="0 0 71 100"><path fill="#F0BD8E" d="M65.72 71.13c1.776-6.474 2.165-12.56 1.423-17.194-.04-.348-.1-.695-.195-1.04-.285-1.364-.662-2.595-1.152-3.63a5.488 5.488 0 0 0-.566-.944l-9.564-24.908L43.66 5.664a6.565 6.565 0 0 0-11.602 5.946l-.207-.15a6.56 6.56 0 0 0-9.18 1.397 6.58 6.58 0 0 0 1.397 9.196l10.32 7.605 2.725 5.974a25.042 25.042 0 0 0-11.204-2.637 25.3 25.3 0 0 0-15.593 5.4 6.582 6.582 0 0 0-1.102 9.236 6.564 6.564 0 0 0 9.223 1.104 11.962 11.962 0 0 1 7.472-2.585c6.67 0 12.1 5.434 12.1 12.113 0 6.678-5.43 12.113-12.1 12.113-5.812 0-10.81-4.14-11.886-9.842-.674-3.57-4.11-5.918-7.674-5.238-3.566.672-5.91 4.113-5.233 7.686.12.64.27 1.268.438 1.89-.013-.005-.04-.02-.04-.02s-.104 5.675 2.824 8.597c1.53 1.522 3.666 4.25 5.63 6.704 1.747 2.56 4.33 5.625 7.818 8.264.9 1.855 5.992 10.73 21.015 10.582 16.773-.164 24.258-4.77 26.078-15.2 1.867-10.667.598-11.34.598-11.34l.245-1.33z"/><path fill="#FBEEDE" d="M2.62 67.8c1.01 4.257 4.467 7.08 7.718 6.308 3.25-.777 5.067-4.854 4.056-9.113-1.012-4.256-4.466-7.08-7.72-6.305-3.25.773-5.067 4.853-4.055 9.11z"/><path fill="#FBEEDE" d="M69.055 69.03l-.17.06A32.204 32.204 0 0 0 70 60.706c0-5.145-1.22-10-3.37-14.306L58.27 24.78 44.025 3.726a6.193 6.193 0 0 0-8.606-1.658 6.21 6.21 0 0 0-1.655 8.617l1.854 2.74-3.524-2.595a6.19 6.19 0 0 0-8.663 1.322 6.21 6.21 0 0 0 1.318 8.673l12.685 9.343 2.592 5.68a24.513 24.513 0 0 0-12.704-3.532c-5.594 0-10.87 1.827-15.256 5.283a5.217 5.217 0 0 0-.87 7.316 5.202 5.202 0 0 0 7.308.873 14.103 14.103 0 0 1 8.818-3.054c7.875 0 14.28 6.414 14.28 14.297 0 7.885-6.406 14.3-14.28 14.3-6.856 0-12.757-4.886-14.028-11.618a5.206 5.206 0 0 0-6.08-4.152 5.208 5.208 0 0 0-4.146 6.088 24.575 24.575 0 0 0 5.397 11.333A32.12 32.12 0 0 0 19.93 87.116l-.026.008s3.906 9.85 18.804 9.707c14.902-.145 24.557-6.798 26.148-16.065.266-1.54.557-2.88.863-4.06a32.035 32.035 0 0 0 3.108-7.42c.14-.176.227-.256.227-.256z"/></svg>