<?xml version="1.0" encoding="utf-8"?>
<!-- Generator: Adobe Illustrator 16.0.0, SVG Export Plug-In . SVG Version: 6.00 Build 0)  -->
<!DOCTYPE svg PUBLIC "-//W3C//DTD SVG 1.1//EN" "http://www.w3.org/Graphics/SVG/1.1/DTD/svg11.dtd">
<svg version="1.1" id="Capa_1" xmlns="http://www.w3.org/2000/svg" xmlns:xlink="http://www.w3.org/1999/xlink" x="0px" y="0px"
	 width="100px" height="73px" viewBox="0 0 100 73" enable-background="new 0 0 100 73" xml:space="preserve">
<g>
	<g>
		<line fill="#D4161E" x1="67.835" y1="50.133" x2="62.651" y2="68.266"/>
		<path fill="#D4161E" d="M62.651,72c-0.339,0-0.684-0.045-1.028-0.143c-1.99-0.566-3.142-2.633-2.575-4.617l5.187-18.131
			c0.566-1.984,2.639-3.131,4.629-2.568c1.988,0.566,3.139,2.633,2.573,4.617l-5.185,18.131C65.782,70.93,64.283,72,62.651,72z"/>
	</g>
	<path fill="#757576" d="M22.477,25.805c-4.294,15.015-3.836,28.31,1.023,29.693c4.858,1.381,12.278-9.67,16.572-24.688
		c4.294-15.018,3.836-28.312-1.022-29.693C34.191-0.266,26.771,10.788,22.477,25.805z"/>
	<path fill="#B9B9B8" d="M41.402,31.188c3.639-12.727,3.864-24.214,0.891-28.264l41.783,24.913
		c3.429,4.228,4.807,9.999,3.199,15.626c-1.528,5.346-5.419,9.385-10.221,11.307l-49.603,0.791
		C32.079,53.449,37.825,43.697,41.402,31.188z"/>
	<path fill="#D4161E" d="M88.872,43.611c0.943-3.299,1.121-6.634,0.643-9.817l9.226-0.315c0.517,3.785,0.276,7.732-0.842,11.64
		c-1.223,4.271-3.358,8.035-6.139,11.139l-7.254-4.303C86.461,49.572,87.973,46.76,88.872,43.611z"/>
	<path fill="#B9B9B8" d="M26.983,20.302l15.126,1.601c-0.483,2.84-1.16,5.836-2.038,8.907c-1.066,3.728-2.325,7.212-3.689,10.321
		l-13.459-6.632l0.005-0.017c-0.827-0.36-1.561-0.86-2.181-1.464c0.451-2.329,1.025-4.746,1.73-7.213
		c0.529-1.849,1.105-3.636,1.719-5.349c0.893-0.218,1.834-0.275,2.783-0.139L26.983,20.302z"/>
	<g>
		<path fill="#757576" d="M11.297,36.739c-0.668,0-1.302-0.396-1.573-1.049c-1.07-2.574-1.525-5.301-1.352-8.102
			c0.353-5.725,3.44-11.021,8.257-14.167c0.785-0.513,1.841-0.294,2.357,0.491c0.514,0.784,0.294,1.837-0.492,2.351
			c-3.982,2.599-6.432,6.804-6.724,11.534c-0.14,2.281,0.229,4.5,1.099,6.592c0.36,0.868-0.052,1.86-0.92,2.218
			C11.735,36.697,11.515,36.739,11.297,36.739z"/>
		<path fill="#757576" d="M4.431,39.328c-0.673,0-1.312-0.402-1.579-1.062C1.419,34.724,0.813,30.98,1.05,27.14
			c0.5-8.121,4.703-15.346,11.53-19.819c0.784-0.516,1.841-0.297,2.357,0.486c0.517,0.784,0.298,1.835-0.487,2.351
			C8.527,14.04,4.882,20.305,4.447,27.349c-0.205,3.331,0.32,6.576,1.561,9.645c0.352,0.871-0.069,1.859-0.941,2.211
			C4.859,39.289,4.643,39.328,4.431,39.328z"/>
	</g>
	<path fill="#B9B9B8" d="M18.875,25.55c1.02-3.567,4.522-5.75,8.104-5.233l0.004-0.015l0.561,0.059L23.43,34.749l-0.507-0.25
		l0.005-0.017c-3.316-1.444-5.138-5.142-4.118-8.708c0.011-0.038,0.025-0.073,0.038-0.11C18.856,25.627,18.863,25.588,18.875,25.55z
		"/>
</g>
</svg>
