<svg xmlns="http://www.w3.org/2000/svg" width="100" height="73" viewBox="0 0 100 73"><g fill="#D4161E"><path d="M67.835 50.133L62.65 68.266M62.65 72a3.734 3.734 0 0 1-3.603-4.76l5.188-18.13a3.748 3.748 0 0 1 4.63-2.57 3.736 3.736 0 0 1 2.572 4.618l-5.185 18.13a3.746 3.746 0 0 1-3.6 2.712z"/></g><path fill="#757576" d="M22.477 25.805C18.183 40.82 18.64 54.115 23.5 55.498c4.858 1.38 12.278-9.67 16.572-24.688 4.294-15.018 3.836-28.312-1.022-29.693-4.86-1.383-12.28 9.67-16.573 24.688z"/><path fill="#B9B9B8" d="M41.402 31.188c3.64-12.727 3.864-24.214.89-28.264l41.784 24.913c3.43 4.228 4.807 10 3.2 15.626-1.53 5.346-5.42 9.385-10.222 11.307l-49.603.79c4.63-2.11 10.375-11.863 13.952-24.372z"/><path fill="#D4161E" d="M88.872 43.61c.943-3.298 1.12-6.633.643-9.816l9.226-.315a28.29 28.29 0 0 1-.84 11.64 28.325 28.325 0 0 1-6.14 11.138l-7.254-4.303a23.14 23.14 0 0 0 4.366-8.344z"/><path fill="#B9B9B8" d="M26.983 20.302l15.126 1.6a83.447 83.447 0 0 1-2.04 8.908c-1.065 3.728-2.324 7.212-3.688 10.32l-13.46-6.63.006-.018a7.293 7.293 0 0 1-2.18-1.464 85.386 85.386 0 0 1 1.73-7.213 85.88 85.88 0 0 1 1.718-5.35 7.33 7.33 0 0 1 2.783-.138l.003-.015z"/><g fill="#757576"><path d="M11.297 36.74a1.704 1.704 0 0 1-1.573-1.05 18.038 18.038 0 0 1-1.352-8.102c.353-5.725 3.44-11.02 8.257-14.167a1.706 1.706 0 0 1 2.356.492 1.697 1.697 0 0 1-.492 2.35c-3.982 2.6-6.432 6.805-6.724 11.535-.14 2.28.23 4.5 1.1 6.592.36.867-.053 1.86-.92 2.217-.215.09-.435.132-.653.132z"/><path d="M4.43 39.328a1.704 1.704 0 0 1-1.578-1.062A25.283 25.283 0 0 1 1.05 27.14c.5-8.12 4.703-15.346 11.53-19.82a1.704 1.704 0 0 1 2.357.487 1.695 1.695 0 0 1-.487 2.35C8.527 14.04 4.882 20.306 4.447 27.35c-.205 3.33.32 6.575 1.56 9.644a1.697 1.697 0 0 1-1.576 2.334z"/></g><path fill="#B9B9B8" d="M18.875 25.55c1.02-3.567 4.522-5.75 8.104-5.233l.003-.015.56.06-4.113 14.387-.507-.25.005-.018c-3.316-1.444-5.138-5.142-4.118-8.708.01-.038.025-.073.038-.11.008-.037.015-.076.027-.114z"/></svg>