<svg xmlns="http://www.w3.org/2000/svg" width="97" height="100" viewBox="0 0 97 100"><g fill-rule="evenodd" clip-rule="evenodd" fill="#FFF"><path d="M89.898 42.817A16.36 16.36 0 0 0 93.64 32.37c0-6.43-3.693-11.985-9.076-14.696-2.557-7.856-9.94-13.537-18.66-13.537a19.58 19.58 0 0 0-7.852 1.635A19.546 19.546 0 0 0 45.228 1c-6.03 0-11.424 2.72-15.024 6.996-.907-.13-1.83-.2-2.77-.2-10.84 0-19.63 8.78-19.63 19.608 0 2.76.575 5.385 1.604 7.765A19.534 19.534 0 0 0 3.88 48.803c0 7.648 4.388 14.268 10.782 17.5.536 8.613 7.68 15.438 16.437 15.438.587 0 1.167-.03 1.74-.094 2.957 2.807 6.944 4.538 11.343 4.538 4.512 0 8.6-1.812 11.575-4.748a16.427 16.427 0 0 0 10.406 3.704c8.033 0 14.715-5.738 16.18-13.332C90.098 70.466 96 63.73 96 55.598c-.002-5.16-2.38-9.76-6.102-12.78zM17.75 90.63c0-4.618-3.75-8.364-8.375-8.364C4.75 82.266 1 86.012 1 90.63 1 95.253 4.75 99 9.375 99c4.624 0 8.375-3.747 8.375-8.37z"/></g></svg>