<?xml version="1.0" encoding="utf-8"?>
<!-- Generator: Adobe Illustrator 16.0.0, SVG Export Plug-In . SVG Version: 6.00 Build 0)  -->
<!DOCTYPE svg PUBLIC "-//W3C//DTD SVG 1.1//EN" "http://www.w3.org/Graphics/SVG/1.1/DTD/svg11.dtd">
<svg version="1.1" id="Capa_1" xmlns="http://www.w3.org/2000/svg" xmlns:xlink="http://www.w3.org/1999/xlink" x="0px" y="0px"
	 width="97px" height="100px" viewBox="0 0 97 100" enable-background="new 0 0 97 100" xml:space="preserve">
<g>
	<path fill-rule="evenodd" clip-rule="evenodd" fill="#FFFFFF" d="M89.898,42.817c2.342-2.842,3.742-6.479,3.742-10.446
		c0-6.431-3.693-11.986-9.076-14.697c-2.557-7.856-9.941-13.537-18.66-13.537c-2.793,0-5.445,0.585-7.852,1.635
		C54.613,2.801,50.134,1,45.228,1c-6.031,0-11.424,2.72-15.024,6.996c-0.907-0.129-1.829-0.199-2.771-0.199
		c-10.839,0-19.628,8.779-19.628,19.607c0,2.76,0.574,5.385,1.603,7.765c-3.419,3.529-5.528,8.335-5.528,13.635
		c0,7.648,4.388,14.268,10.782,17.501c0.536,8.612,7.68,15.437,16.437,15.437c0.588,0,1.168-0.031,1.741-0.094
		c2.957,2.807,6.944,4.538,11.343,4.538c4.512,0,8.6-1.812,11.575-4.748c2.838,2.311,6.459,3.704,10.406,3.704
		c8.033,0,14.715-5.738,16.18-13.332c7.754-1.344,13.656-8.081,13.656-16.212C95.998,50.439,93.621,45.838,89.898,42.817z"/>
	<path fill-rule="evenodd" clip-rule="evenodd" fill="#FFFFFF" d="M17.75,90.63c0-4.618-3.751-8.364-8.375-8.364
		C4.749,82.266,1,86.012,1,90.63C1,95.253,4.749,99,9.375,99C13.999,99,17.75,95.253,17.75,90.63z"/>
</g>
</svg>
