<svg xmlns="http://www.w3.org/2000/svg" width="100" height="81" viewBox="0 0 100 81"><path fill="#E1E8ED" d="M33.496 74.56V80l33.03-8.583v-5.673zM33.453 9.77L66.465 1v6.468l-33.04 9.22z"/><path fill="#CCD6DC" d="M33.453 9.77L7.7 2.54S1 2.108 1 8.364V64.49s-.1 6.504 7.73 8.74C17.624 75.77 33.555 80 33.555 80l-.102-70.23z"/><path fill="#5EA7DC" d="M33.496 15.305l-22.23-6.17s-4.982-1.113-4.982 4.457v48.243s-.515 5.14 4.38 6.682c4.897 1.543 22.86 6.075 22.86 6.075l-.028-59.287z"/><path fill="#CCD6DC" d="M66.55 71.248l25.75 7.234s6.7.427 6.7-5.828V16.53s.1-6.504-7.73-8.742c-8.895-2.54-24.824-6.77-24.824-6.77l.103 70.23z"/><path fill="#5EA7DC" d="M66.504 65.713l22.23 6.17S93.716 73 93.716 67.43V19.185s.514-5.14-4.38-6.684c-4.897-1.543-22.86-6.075-22.86-6.075l.027 59.286z"/><path fill="#5C903A" d="M32.764 27.472s-.344 3-1.375 2.742c-1.03-.257-2.577-.685-2.834-1.028-.258-.342-.516-1.114-.258-1.457.258-.344 1.375-1.372 1.632-1.458.258-.085 1.03-.343 1.374-.514.344-.17.344-.256.344-.77 0-.515-.772-.772-.945-1.03-.17-.256-1.46-.17-1.89-.513-.43-.343-2.318-1.03-2.576-1.03s-1.632-.17-2.062.087c-.43.256-.772.685-1.374.685s-1.975.257-2.318.085c-.344-.17-.687.172-1.375-.343-.687-.515-.687-.343-.516-.857.173-.514-1.03-.6-1.2-.942-.174-.34-.517-.428-1.205-.428-.687 0-1.29-.342-1.976-.256-.688.085-1.804.256-2.235.428-.43.17-1.03.514-.943.856.085.343.514.514.085 1.2-.43.685-2.062 1.714-.945 1.885 1.116.17 1.374.257 2.234.257.858 0 2.06.43 2.06.43s.603.34.43.77c-.17.43-.602 1.028-.858 1.457-.258.427-.945 1.113-.774 1.37.173.257.173.856.86 1.457.687.6.687 2.056 1.29 2.742.6.684 4.81 4.198 4.636 4.798-.17.6.258 2.057.688 2.313.43.258 1.116 1.887 1.545 2.23.43.342 2.234 1.457 2.492 1.798.257.345 2.576 2.83 2.834 3.087.257.257 1.373.685 1.202 1.198-.172.513.43 1.115-.087 1.628-.515.515-1.116 1.886-1.116 1.886s.17 1.457.515 1.715.858 1.543 1.374 1.8c.514.257 1.288 1.113 1.288 1.113s.688.602.6 1.287c-.085.686-.085 1.113 0 1.627.087.514.087.943-.343 1.8-.43.856-.687 1.712-1.29 2.484-.6.772-1.374 1.115-.772 1.715.602.6.945 1.028 1.29.77.342-.256 1.03-.684 1.288-.855.26-.17.322-.508.773-.77 1.03-.6 1.803-1.285 1.803-1.285V46.838s-2.232.943-2.834 1.113c-.602.172-1.374.087-1.374.087s-1.203-1.8-1.718-1.97c-.516-.172 1.03-.172.772-.6-.258-.43.43-.602-.43-.857-.86-.258-1.63-.43-1.63-.43s-.688-.257-1.032-.686c-.344-.428-.86-.855-.86-1.114 0-.256-.514-1.113-.256-1.455.257-.343.344-.686.6-.943.258-.257.602-.686.945-.686.342 0 .944-.086 1.115.17.172.26.087.772.43.944.344.172.688.686.773.942.085.258.687.857.945.77.258-.085.858-.513.773-1.114-.085-.6-.344-1.027-.085-1.712.26-.686.172-1.286.688-1.542.516-.257.945-.686 1.29-.943.343-.255.257.087.514-.6.258-.684.687-1.113.687-1.113v-8.483l-.686.858z"/><path fill="#8CC4EC" d="M33.44 15.28l33.05-8.885V65.82l-32.955 8.707z"/><path fill="#77B254" d="M33.466 47.296v17.032s2.097-1.755 2.664-2.49c.567-.733 1.305-1.64 1.477-2.036.17-.396.453-1.585.567-1.867.112-.284.112-1.303.51-1.755.396-.452.283-1.357.624-1.526.34-.17.906-.623 1.248-.793.34-.17.453-.622.623-.68.17-.056 1.304-.734 1.304-.734s-.114-.734-.284-.734c-.17 0-1.134-.227-1.305-.284-.17-.057-1.644 0-1.475-.51.17-.508-.17-1.244 0-1.64.17-.396-.453-.905-.453-.905s-.227-.17-.738-.282c-.51-.113-1.986-.227-2.27-.057-.284.17-.567.452-.908.34-.34-.11-1.02-.17-1.134-.34-.113-.17-.452-.737-.452-.737zM66.484 14.658c-.324-.158-.61-.284-.61-.284s-2.384.905-2.894 1.188c-.51.283-2.383 1.528-2.664 1.754-.285.226-.967.905-1.42 1.02-.453.112-1.814.225-2.098.225s-1.19 0-1.758.114c-.566.113-1.533.283-1.758.452-.23.17-.852.792-1.248 1.02-.398.226-.625.848-.965 1.074-.343.227-.966 1.19-1.022 1.36-.056.168.113.905.113.905s.683.056.966-.114.795-.338 1.02-.564.794-.34 1.022-.566c.225-.226 1.53-.565 1.758-.68.225-.112 1.416-.79 1.416-.79s.682.225.51.395c-.168.17-.28 1.528-.566 1.584-.283.056-.793.85-1.135.962-.34.113-1.19.905-1.7.905s-1.473.17-1.87.34-1.703.79-1.93.85c-.226.055-1.474.62-1.7.79-.227.17-.51.737-.51.737l-.34 1.13-.114.962-.34.454s-.68.396-1.02.396c-.34 0-1.19.282-1.19.282s0 .623-.058.85c-.057.225.567.678.567.678s.51.113 1.02.283c.51.168 1.25.62 1.42.79s.735.114.68-.17c-.057-.282.68-.96.736-1.244.058-.282.794-.34.682-.848-.114-.51.736-.85.623-1.132-.113-.283.17-.453.285-.792.11-.34.566-.452.85-.623.283-.17 1.986-.564 2.21-.564h1.76l-.112 1.02s-.736 1.13-.852 1.3c-.113.17-.057 1.13-.057 1.358 0 .226.34 1.357.056 1.357-.285 0-1.53 1.02-1.93.737-.395-.283-1.473-.226-1.7-.17-.226.057-1.872.566-2.1.566-.225 0-1.474.34-1.643.34-.17 0-.738.282-1.08.452-.34.17-.168.848-.623.905-.453.057-1.304.68-1.758.96-.453.284-.906 1.134-.737 1.7.17.565-.843.893-.616 1.232s.26 1.33.6 1.952c.34.623 1.297 1.99 1.81 2.103.51.113 1.723-.647 2.29-.535.567.112 1.36.454 1.815.454.453 0 .908.28 1.474.622.567.338.794.734.735 1.188-.057.452.455.51.227.904-.227.396 0 1.188 0 1.188l.682.51s.51.34.623.564c.115.23.285 1.188.4 1.53.11.337.28 1.074.51 1.47.225.396 0 1.074.453 1.3s-.285.285.28.682c.57.395 1.08 1.412 1.706.734.62-.678 1.02-1.357 1.076-1.527s.168-.96.34-1.357c.17-.396 0-.79.396-1.642.398-.846 1.19-1.696 1.19-1.978 0-.283.513-1.414.513-1.64 0-.227.17-1.302 1.08-1.472.905-.17.905-.114.905-.566s.395-1.302.17-1.527c-.23-.227-.057-1.188.225-1.358.285-.17 1.14-.51 1.25-.85.113-.34-.17-.453.398-1.13.566-.68.734-.85.79-1.076.06-.226.23-.735-.112-.792-.34-.057-1.588-.17-1.758-.113-.168.056-1.475-.17-2.55-.567-1.08-.396-.91-1.13-1.478-1.584-.566-.454-.566-.34-1.135-.905-.566-.566-.734-.737-.734-1.02 0-.283.226-.622.622-.51.398.114 1.023.454 1.533.737s.738.622 1.363.792c.62.17.904.565 1.3.792.4.226.855.453 1.308.226.453-.226.852.114 1.076-.34.23-.45-.396-.735.113-1.13.512-.397.965-.68.965-.68s.568-.283.736-.283c.172 0 .453-.17.625-.17.12 0 .437.055.612.088v-17.97zM38.49 31.023c-.057-.17-.736-.453-1.36-.622-.625-.17-.625-.678-1.022-1.018s-.85-.848-1.644-1.527c-.61-.52-.917-.972-1.028-1.155v8.816c.462-.095 1.823-.372 2.105-.42.34-.055.682-1.074.794-1.244.114-.17.17-1.13.228-1.3.057-.17 1.134-.567 1.475-.68.34-.113.51-.68.453-.85z"/><path fill="#5C903A" d="M79.744 47.47s-2.215.683-2.37.683c-.16 0-1.267.736-1.267.736s-.947.42-1.002.63c-.055.212-.055 1-.055 1l.11 1.052s.103.737-.056.948c-.158.21-.738.998-.738.998s-.475.79-.684.843c-.213.052-.213.315.105.42.314.106.736.526 1.002.37.26-.157 1.63-.525 1.79-.738.158-.21 1.58-.683 1.793-.577.21.104 1.477.42 1.477.577 0 .158.42 1.578.684 1.736.266.158 1.107 1.21 1.213 1.368s.896 1 1.162 1.158c.263.156 1.526.262 1.526.262s1.266-.368 1.266-.63c0-.265 1.477-1.105 1.316-1.264-.156-.16.16-.895.055-1.368-.105-.473-.105-1.21-.21-1.473-.105-.262 0-.734-.214-1.103-.21-.368-1.108-1.526-1.263-1.736-.16-.208-.844-.577-1.057-.735-.21-.157-1.527-.264-1.582-.474-.053-.208-.578-.525-.633-.734l-.21-.896-.687-.314-1.474-.735zM75.16 41.578l.05 1.63s0 .842.16 1.054c.16.21.313.736.737.84s.947.527 1.162.474c.208-.052.683-.21.683-.21l-.16-.473-.842-.21-.42-.42-.16-.475s0-.316.052-.632c.055-.316.16-.684.11-.894-.056-.21-.425-.37-.425-.37l-.947-.314zM77.848 43.788c.158.105.264.314.58.42.316.106.896.525.947.685.055.158.318.578.527.683.21.104.793.473 1.057.264.26-.21.368-.736.26-.896-.104-.157 0-.525-.21-.63-.21-.105-.527-.21-.738-.21-.21 0-.527-.054-.684-.21-.158-.16-1.9-.212-1.74-.106zM82.855 45.997s-.58 1.155-.42 1.155c.156 0 .79.422 1.002.475.21.053 1.053.788 1.264.843.214.05.74.682.74.682l.95.527s.79.263.893.42c.105.157.53.525.738.58.214.05.845.103.794-.212-.055-.316-.264-.632-.475-.843-.214-.21-.634-.314-.952-.524-.314-.21-.79-.262-.947-.474-.16-.21-.685-.524-.788-.684-.11-.158-.793-.472-.793-.63s-.845-.737-.845-.737l-1.16-.578zM83.398 31.34l-.033.268-.102.703v.836s-.033.703-.066.802c-.033.1.1.502 0 .603-.102.1-.303.636-.135.67.168.033.77-.1.77-.1s.17-.102.136-.27c-.037-.166-.102-.233-.037-.367.07-.133.07-.3.07-.502 0-.2.067-.366.067-.634v-.535c0-.367-.137-.7-.066-.835.067-.134.235-.602.235-.77 0-.166-.305-.6-.305-.6l-.532.736zM84.438 27.463l-.066.602.13.736-.097.703s.467.267.57.1c.098-.167.064-.267.2-.602.132-.333.065-.367.032-.567-.033-.2-.064-.167-.102-.434-.033-.27-.13-.37-.164-.57-.036-.2-.237-.067-.237-.067l-.265.1z"/><path fill="#5C903A" d="M88.434 23.674c-.6 0-1.113-.6-1.8-.684-.685-.085-1.714-.6-2.57-.94-.856-.342-1.028-1.197-1.974-1.368-.94-.17-3.256-.086-4.283-.086-1.03 0-.602-.427-.943-.684-.342-.256-1.03-1.197-1.37-1.453-.343-.258-1.2-.6-1.63-.515-.43.086-.6.514-1.285.685-.687.17-1.458-1.37-2.4-2.223-.894-.81-3.43-1.628-3.69-1.71l-.004 17.928c.172-.304.48-.967.693-.914.34.086.683 1.027 1.284 1.797.6.77.258.94.174 1.966-.088 1.027.426 1.198.254 1.625-.17.427.943 1.026 1.287 1.453s1.542.257 1.972.086c.428-.17 0-1.28-.088-1.538-.084-.257-.342-.855-.428-1.625-.084-.77.77-.085 1.2 0 .43.086.944 1.284 1.028 1.625.086.342 1.2 1.282 1.2 1.966 0 .684.343.684.858 1.282.512.6 1.025 0 1.113-.256.086-.257.342-.855.6-1.625.258-.77 1.37-.94 1.63-1.11.255-.172.683-.43 1.028-.856.342-.43 1.197-1.028 1.197-1.028s-.172-1.11-.172-1.54c0-.426.172-1.367.172-1.794 0-.428 0-1.112.346-1.454.342-.342.94-1.112.94-1.112l.772-.854-.514-.77s-.516-.343-.857-.514c-.342-.17 0-.854 0-.854s.684-1.026.94-1.368 1.03-.17 1.46-.085c.428.085 1.2.854 1.2.854l1.972-.255 1.11-1.197s.173-.854-.426-.854z"/></svg>