<?xml version="1.0" encoding="utf-8"?>
<!-- Generator: Adobe Illustrator 16.0.0, SVG Export Plug-In . SVG Version: 6.00 Build 0)  -->
<!DOCTYPE svg PUBLIC "-//W3C//DTD SVG 1.1//EN" "http://www.w3.org/Graphics/SVG/1.1/DTD/svg11.dtd">
<svg version="1.1" id="Capa_1" xmlns="http://www.w3.org/2000/svg" xmlns:xlink="http://www.w3.org/1999/xlink" x="0px" y="0px"
	 width="100px" height="81px" viewBox="0 0 100 81" enable-background="new 0 0 100 81" xml:space="preserve">
<g>
	<polygon fill="#E1E8ED" points="33.496,74.561 33.496,80 66.527,71.417 66.527,65.744 	"/>
	<polygon fill="#E1E8ED" points="33.453,9.771 66.465,1 66.465,7.468 33.424,16.688 	"/>
	<path fill="#CCD6DC" d="M33.453,9.771L7.7,2.538c0,0-6.7-0.429-6.7,5.826c0,6.256,0,56.125,0,56.125s-0.101,6.505,7.73,8.741
		C17.624,75.77,33.555,80,33.555,80L33.453,9.771z"/>
	<path fill="#5EA7DC" d="M33.496,15.305l-22.23-6.169c0,0-4.982-1.114-4.982,4.456c0,5.569,0,48.243,0,48.243
		s-0.515,5.14,4.381,6.682c4.896,1.543,22.86,6.075,22.86,6.075L33.496,15.305z"/>
	<path fill="#CCD6DC" d="M66.549,71.248l25.752,7.234c0,0,6.699,0.427,6.699-5.828s0-56.125,0-56.125s0.1-6.503-7.73-8.741
		c-8.895-2.541-24.824-6.77-24.824-6.77L66.549,71.248z"/>
	<path fill="#5EA7DC" d="M66.504,65.713l22.229,6.171c0,0,4.984,1.114,4.984-4.455c0-5.57,0-48.243,0-48.243
		s0.514-5.141-4.381-6.684c-4.896-1.543-22.859-6.075-22.859-6.075L66.504,65.713z"/>
	<path fill="#5C903A" d="M32.764,27.472c0,0-0.344,2.999-1.375,2.742c-1.03-0.257-2.576-0.685-2.833-1.028
		c-0.258-0.342-0.516-1.114-0.258-1.457c0.258-0.343,1.375-1.371,1.632-1.457c0.258-0.085,1.031-0.343,1.374-0.514
		c0.344-0.171,0.344-0.256,0.344-0.771c0-0.514-0.772-0.771-0.945-1.028c-0.171-0.257-1.459-0.172-1.889-0.514
		c-0.431-0.343-2.319-1.029-2.577-1.029c-0.258,0-1.632-0.171-2.062,0.086c-0.431,0.256-0.772,0.685-1.374,0.685
		s-1.976,0.257-2.319,0.085c-0.344-0.171-0.687,0.172-1.375-0.343c-0.687-0.514-0.687-0.342-0.516-0.856
		c0.172-0.514-1.031-0.599-1.202-0.942c-0.173-0.342-0.516-0.429-1.204-0.429c-0.687,0-1.289-0.342-1.976-0.256
		c-0.687,0.085-1.803,0.256-2.234,0.428c-0.429,0.171-1.029,0.514-0.943,0.856c0.085,0.343,0.514,0.514,0.085,1.199
		c-0.429,0.686-2.062,1.715-0.945,1.886c1.116,0.171,1.374,0.257,2.234,0.257c0.858,0,2.061,0.429,2.061,0.429
		s0.602,0.342,0.429,0.771c-0.171,0.429-0.602,1.028-0.858,1.457c-0.258,0.428-0.945,1.114-0.774,1.371
		c0.173,0.257,0.173,0.856,0.86,1.457c0.687,0.599,0.687,2.056,1.289,2.742c0.602,0.685,4.81,4.199,4.637,4.799
		c-0.171,0.6,0.258,2.057,0.688,2.313c0.429,0.257,1.116,1.886,1.545,2.229c0.431,0.342,2.234,1.457,2.492,1.798
		c0.257,0.345,2.576,2.829,2.834,3.087c0.258,0.257,1.374,0.685,1.203,1.198c-0.172,0.513,0.429,1.115-0.087,1.628
		c-0.515,0.514-1.116,1.885-1.116,1.885s0.172,1.457,0.516,1.715s0.858,1.542,1.374,1.799c0.515,0.257,1.289,1.113,1.289,1.113
		s0.688,0.602,0.6,1.287c-0.085,0.686-0.085,1.113,0,1.627c0.087,0.514,0.087,0.943-0.343,1.801
		c-0.429,0.855-0.687,1.711-1.289,2.483c-0.6,0.771-1.375,1.114-0.773,1.714c0.602,0.601,0.945,1.028,1.289,0.771
		c0.343-0.257,1.03-0.685,1.289-0.856c0.258-0.17,0.321-0.508,0.772-0.771c1.031-0.599,1.803-1.284,1.803-1.284V46.838
		c0,0-2.232,0.943-2.834,1.113c-0.602,0.171-1.374,0.086-1.374,0.086s-1.203-1.8-1.718-1.971c-0.516-0.171,1.031-0.171,0.772-0.599
		c-0.258-0.43,0.429-0.602-0.429-0.857c-0.86-0.258-1.632-0.43-1.632-0.43s-0.687-0.257-1.031-0.686
		c-0.344-0.428-0.859-0.855-0.859-1.114c0-0.256-0.515-1.113-0.257-1.455c0.257-0.343,0.344-0.686,0.6-0.943
		c0.258-0.257,0.602-0.686,0.945-0.686c0.343,0,0.945-0.086,1.116,0.171c0.172,0.258,0.087,0.771,0.43,0.943
		c0.344,0.172,0.688,0.686,0.773,0.942c0.085,0.258,0.687,0.857,0.945,0.771c0.258-0.086,0.858-0.514,0.773-1.115
		c-0.085-0.599-0.344-1.027-0.085-1.712c0.258-0.686,0.171-1.286,0.687-1.542c0.516-0.257,0.945-0.686,1.289-0.943
		c0.344-0.256,0.258,0.086,0.515-0.6c0.258-0.685,0.687-1.114,0.687-1.114v-8.483L32.764,27.472z"/>
	<polygon fill="#8CC4EC" points="33.44,15.279 66.49,6.395 66.49,65.821 33.535,74.527 	"/>
	<path fill="#77B254" d="M33.466,47.296v17.032c0,0,2.097-1.755,2.664-2.489c0.567-0.734,1.305-1.642,1.477-2.037
		c0.169-0.396,0.453-1.585,0.567-1.867c0.112-0.284,0.112-1.303,0.51-1.755c0.396-0.452,0.283-1.357,0.624-1.526
		c0.339-0.171,0.906-0.623,1.248-0.793c0.339-0.171,0.453-0.623,0.623-0.68c0.171-0.057,1.305-0.735,1.305-0.735
		s-0.114-0.734-0.284-0.734c-0.171,0-1.134-0.227-1.305-0.284c-0.169-0.057-1.644,0-1.475-0.509c0.171-0.509-0.169-1.245,0-1.641
		c0.171-0.396-0.453-0.905-0.453-0.905s-0.227-0.169-0.738-0.282c-0.51-0.114-1.985-0.228-2.269-0.058
		c-0.284,0.171-0.567,0.452-0.908,0.34c-0.34-0.111-1.02-0.169-1.134-0.34C33.805,47.862,33.466,47.296,33.466,47.296z"/>
	<path fill="#77B254" d="M66.484,14.658c-0.324-0.158-0.611-0.284-0.611-0.284s-2.383,0.905-2.893,1.188
		c-0.51,0.283-2.383,1.528-2.664,1.754c-0.285,0.226-0.967,0.905-1.42,1.019c-0.453,0.113-1.814,0.226-2.098,0.226
		s-1.189,0-1.758,0.113c-0.566,0.113-1.533,0.283-1.758,0.452c-0.229,0.17-0.852,0.792-1.248,1.019
		c-0.398,0.227-0.625,0.849-0.965,1.075c-0.342,0.227-0.965,1.189-1.021,1.359c-0.056,0.169,0.113,0.906,0.113,0.906
		s0.682,0.056,0.965-0.114s0.795-0.339,1.021-0.565s0.793-0.34,1.021-0.566c0.225-0.226,1.529-0.565,1.758-0.679
		c0.225-0.113,1.416-0.792,1.416-0.792s0.682,0.226,0.51,0.396c-0.168,0.17-0.281,1.528-0.566,1.584
		c-0.283,0.057-0.793,0.85-1.135,0.963c-0.34,0.113-1.191,0.905-1.701,0.905s-1.473,0.169-1.871,0.339
		c-0.396,0.17-1.702,0.792-1.928,0.85c-0.227,0.056-1.475,0.622-1.701,0.792c-0.227,0.17-0.51,0.736-0.51,0.736l-0.34,1.131
		l-0.114,0.961l-0.34,0.454c0,0-0.68,0.396-1.02,0.396c-0.341,0-1.191,0.282-1.191,0.282s0,0.623-0.057,0.849
		c-0.057,0.226,0.567,0.679,0.567,0.679s0.51,0.113,1.021,0.283c0.51,0.169,1.249,0.622,1.418,0.792s0.736,0.113,0.681-0.17
		c-0.057-0.283,0.679-0.961,0.736-1.245c0.057-0.282,0.793-0.339,0.681-0.848c-0.114-0.51,0.736-0.85,0.623-1.132
		c-0.113-0.283,0.17-0.453,0.285-0.792c0.111-0.339,0.566-0.452,0.85-0.623c0.283-0.17,1.986-0.565,2.211-0.565
		c0.229,0,1.758,0,1.758,0l-0.111,1.019c0,0-0.736,1.131-0.852,1.301c-0.113,0.17-0.057,1.131-0.057,1.358
		c0,0.226,0.34,1.357,0.057,1.357c-0.285,0-1.529,1.019-1.93,0.736c-0.395-0.283-1.473-0.226-1.699-0.17
		c-0.227,0.057-1.873,0.566-2.1,0.566c-0.226,0-1.475,0.339-1.644,0.339c-0.171,0-0.738,0.283-1.079,0.453
		c-0.34,0.169-0.169,0.848-0.624,0.905c-0.453,0.057-1.304,0.68-1.758,0.961c-0.453,0.283-0.906,1.133-0.737,1.698
		c0.17,0.566-0.843,0.894-0.616,1.233s0.261,1.331,0.602,1.952c0.34,0.623,1.296,1.991,1.808,2.103
		c0.51,0.113,1.724-0.647,2.291-0.535c0.567,0.112,1.36,0.454,1.815,0.454c0.453,0,0.908,0.281,1.474,0.622
		c0.568,0.338,0.795,0.734,0.736,1.188c-0.057,0.452,0.455,0.509,0.227,0.904c-0.227,0.396,0,1.188,0,1.188l0.682,0.51
		c0,0,0.51,0.341,0.623,0.564c0.115,0.229,0.285,1.188,0.4,1.529c0.111,0.338,0.281,1.075,0.51,1.471
		c0.225,0.396,0,1.074,0.453,1.301s-0.285,0.284,0.281,0.681c0.568,0.395,1.08,1.412,1.705,0.734
		c0.621-0.678,1.02-1.357,1.076-1.527s0.168-0.962,0.34-1.358c0.17-0.396,0-0.791,0.396-1.642c0.398-0.847,1.191-1.697,1.191-1.979
		c0-0.283,0.512-1.414,0.512-1.641c0-0.226,0.168-1.301,1.078-1.471c0.906-0.171,0.906-0.114,0.906-0.566s0.395-1.302,0.17-1.527
		c-0.229-0.227-0.057-1.188,0.225-1.358c0.285-0.17,1.139-0.509,1.25-0.849c0.113-0.339-0.17-0.453,0.398-1.131
		c0.566-0.679,0.734-0.849,0.791-1.075c0.059-0.226,0.229-0.735-0.113-0.792c-0.34-0.057-1.588-0.169-1.758-0.113
		c-0.168,0.057-1.475-0.17-2.551-0.566c-1.078-0.396-0.908-1.131-1.477-1.584c-0.566-0.453-0.566-0.339-1.135-0.904
		c-0.566-0.566-0.734-0.737-0.734-1.019c0-0.284,0.225-0.623,0.621-0.51c0.398,0.113,1.023,0.453,1.533,0.736
		c0.51,0.283,0.738,0.622,1.363,0.792c0.621,0.169,0.904,0.565,1.301,0.792c0.4,0.226,0.854,0.453,1.307,0.226
		c0.453-0.226,0.852,0.114,1.076-0.339c0.229-0.452-0.396-0.736,0.113-1.132c0.512-0.396,0.965-0.679,0.965-0.679
		s0.568-0.283,0.736-0.283c0.172,0,0.453-0.17,0.625-0.17c0.119,0,0.436,0.056,0.611,0.089V14.658z"/>
	<path fill="#77B254" d="M38.49,31.023c-0.057-0.17-0.736-0.453-1.36-0.622c-0.625-0.17-0.625-0.679-1.022-1.019
		s-0.851-0.848-1.644-1.527c-0.609-0.521-0.917-0.972-1.028-1.155v8.816c0.462-0.095,1.823-0.372,2.105-0.419
		c0.34-0.056,0.681-1.075,0.793-1.245c0.114-0.17,0.171-1.131,0.228-1.301c0.057-0.17,1.134-0.566,1.475-0.68
		C38.378,31.759,38.547,31.193,38.49,31.023z"/>
	<path fill="#5C903A" d="M79.744,47.471c0,0-2.215,0.682-2.371,0.682c-0.158,0-1.266,0.736-1.266,0.736s-0.947,0.422-1.002,0.632
		c-0.055,0.211-0.055,0.999-0.055,0.999l0.109,1.052c0,0,0.104,0.737-0.055,0.948c-0.158,0.21-0.738,0.998-0.738,0.998
		s-0.475,0.789-0.684,0.843c-0.213,0.051-0.213,0.314,0.105,0.418c0.314,0.107,0.736,0.527,1.002,0.371
		c0.26-0.157,1.631-0.525,1.791-0.738c0.158-0.21,1.58-0.683,1.793-0.577c0.211,0.104,1.477,0.42,1.477,0.577
		c0,0.158,0.42,1.578,0.684,1.736c0.266,0.158,1.107,1.21,1.213,1.368s0.896,0.999,1.162,1.158c0.264,0.156,1.527,0.262,1.527,0.262
		s1.266-0.368,1.266-0.63c0-0.265,1.477-1.105,1.316-1.264c-0.156-0.159,0.16-0.895,0.055-1.368
		c-0.105-0.473-0.105-1.209-0.211-1.473c-0.104-0.263,0-0.735-0.213-1.104c-0.209-0.368-1.107-1.526-1.262-1.736
		c-0.16-0.209-0.844-0.578-1.057-0.736c-0.211-0.157-1.527-0.264-1.582-0.474c-0.053-0.209-0.578-0.526-0.633-0.735
		c-0.051-0.21-0.209-0.896-0.209-0.896l-0.688-0.314L79.744,47.471z"/>
	<path fill="#5C903A" d="M75.16,41.578l0.051,1.631c0,0,0,0.841,0.158,1.053c0.16,0.209,0.314,0.736,0.738,0.841
		s0.947,0.526,1.162,0.473c0.209-0.052,0.684-0.209,0.684-0.209l-0.16-0.474l-0.842-0.21l-0.42-0.421l-0.16-0.474
		c0,0,0-0.316,0.051-0.632c0.055-0.316,0.16-0.684,0.109-0.894c-0.055-0.211-0.424-0.369-0.424-0.369L75.16,41.578z"/>
	<path fill="#5C903A" d="M77.848,43.788c0.158,0.105,0.264,0.314,0.58,0.42c0.316,0.106,0.896,0.525,0.947,0.685
		c0.055,0.158,0.318,0.578,0.527,0.683c0.211,0.104,0.793,0.473,1.057,0.264c0.262-0.21,0.369-0.736,0.262-0.896
		c-0.105-0.157,0-0.525-0.211-0.629c-0.209-0.106-0.527-0.212-0.738-0.212c-0.209,0-0.527-0.053-0.684-0.209
		C79.43,43.734,77.689,43.682,77.848,43.788z"/>
	<path fill="#5C903A" d="M82.855,45.997c0,0-0.58,1.155-0.42,1.155c0.156,0,0.789,0.422,1.002,0.475
		c0.211,0.053,1.053,0.788,1.264,0.843c0.213,0.051,0.738,0.682,0.738,0.682l0.951,0.527c0,0,0.789,0.264,0.893,0.421
		c0.105,0.157,0.529,0.525,0.738,0.579c0.213,0.051,0.844,0.104,0.793-0.211c-0.055-0.316-0.264-0.632-0.475-0.843
		c-0.213-0.209-0.633-0.314-0.951-0.524c-0.314-0.212-0.789-0.263-0.947-0.475c-0.16-0.211-0.686-0.524-0.789-0.684
		c-0.109-0.158-0.793-0.472-0.793-0.631s-0.844-0.736-0.844-0.736L82.855,45.997z"/>
	<path fill="#5C903A" d="M83.398,31.341l-0.033,0.267l-0.102,0.703v0.835c0,0-0.033,0.703-0.066,0.802
		c-0.033,0.101,0.1,0.502,0,0.603c-0.102,0.1-0.303,0.635-0.135,0.668c0.168,0.034,0.771-0.1,0.771-0.1s0.168-0.101,0.135-0.268
		c-0.037-0.167-0.102-0.234-0.037-0.368c0.07-0.133,0.07-0.301,0.07-0.502c0-0.2,0.066-0.367,0.066-0.635c0-0.267,0-0.167,0-0.535
		c0-0.368-0.137-0.702-0.066-0.836c0.066-0.134,0.234-0.602,0.234-0.769c0-0.167-0.305-0.602-0.305-0.602L83.398,31.341z"/>
	<path fill="#5C903A" d="M84.438,27.463l-0.066,0.602l0.131,0.736l-0.098,0.702c0,0,0.467,0.267,0.57,0.1
		c0.098-0.167,0.064-0.267,0.199-0.602c0.133-0.334,0.066-0.368,0.033-0.568c-0.033-0.201-0.064-0.167-0.102-0.434
		c-0.033-0.268-0.131-0.368-0.164-0.569c-0.037-0.201-0.238-0.067-0.238-0.067L84.438,27.463z"/>
	<path fill="#5C903A" d="M88.434,23.674c-0.6,0-1.113-0.599-1.801-0.684c-0.684-0.085-1.713-0.599-2.57-0.94
		c-0.855-0.342-1.027-1.197-1.973-1.368c-0.941-0.171-3.256-0.086-4.283-0.086c-1.029,0-0.602-0.427-0.943-0.684
		c-0.342-0.256-1.029-1.197-1.371-1.453c-0.342-0.257-1.199-0.6-1.629-0.514c-0.43,0.086-0.6,0.514-1.285,0.685
		c-0.686,0.171-1.457-1.369-2.4-2.223c-0.893-0.811-3.428-1.628-3.689-1.711l-0.004,17.929c0.172-0.304,0.479-0.967,0.693-0.914
		c0.342,0.085,0.684,1.026,1.285,1.796c0.6,0.77,0.258,0.94,0.174,1.966c-0.088,1.027,0.426,1.198,0.254,1.625
		c-0.17,0.427,0.943,1.026,1.287,1.453s1.543,0.256,1.973,0.085c0.428-0.17,0-1.281-0.088-1.538
		c-0.084-0.257-0.342-0.855-0.428-1.625c-0.084-0.769,0.77-0.085,1.199,0c0.43,0.086,0.945,1.284,1.029,1.625
		c0.086,0.342,1.199,1.282,1.199,1.966c0,0.684,0.344,0.684,0.859,1.282c0.512,0.599,1.025,0,1.113-0.256
		c0.086-0.257,0.342-0.855,0.6-1.625c0.258-0.77,1.371-0.94,1.629-1.111c0.256-0.171,0.684-0.428,1.029-0.855
		c0.342-0.428,1.197-1.027,1.197-1.027s-0.172-1.111-0.172-1.539c0-0.427,0.172-1.368,0.172-1.795c0-0.428,0-1.112,0.346-1.454
		c0.342-0.342,0.941-1.112,0.941-1.112l0.771-0.854l-0.514-0.77c0,0-0.516-0.343-0.857-0.514c-0.342-0.17,0-0.854,0-0.854
		s0.684-1.026,0.941-1.368s1.029-0.17,1.459-0.085c0.428,0.085,1.199,0.854,1.199,0.854l1.973-0.256l1.111-1.197
		C88.861,24.529,89.033,23.674,88.434,23.674z"/>
</g>
</svg>
