<svg xmlns="http://www.w3.org/2000/svg" width="100" height="87" viewBox="0 0 100 87"><path fill="#E20613" d="M33.65 17.255c0 1.54 1.25 2.79 2.786 2.79.03 0 .06-.01.094-.01v.01h5.69v14.687a2.6 2.6 0 0 0 2.6 2.604h10.27a2.602 2.602 0 0 0 2.6-2.604V20.044h6.343c1.54 0 2.784-1.25 2.784-2.79 0-.844-.383-1.59-.974-2.103L51.84 1.706l-.03.007A2.117 2.117 0 0 0 50.23 1c-.638 0-1.205.285-1.597.73l-.01-.003-13.876 13.326a2.77 2.77 0 0 0-1.096 2.202z"/><path fill="#8CA0C8" d="M99 80.794A5.2 5.2 0 0 1 93.803 86H6.253a5.2 5.2 0 0 1-5.198-5.206V65.38a5.203 5.203 0 0 1 5.198-5.204h87.55a5.2 5.2 0 0 1 5.196 5.204v15.414z"/><path fill="#FFF" d="M98.972 75.41V44.87a2.6 2.6 0 0 0-2.598-2.603H3.6A2.6 2.6 0 0 0 1 44.87v30.54h97.972z"/><path fill="#5379B0" d="M49.985 61.438c10.518 0 19.047-8.54 19.047-19.076 0-.032-.01-.063-.01-.096H30.946c0 .032-.003.063-.003.096 0 10.535 8.526 19.076 19.043 19.076z"/></svg>