<?xml version="1.0" encoding="utf-8"?>
<!-- Generator: Adobe Illustrator 16.0.0, SVG Export Plug-In . SVG Version: 6.00 Build 0)  -->
<!DOCTYPE svg PUBLIC "-//W3C//DTD SVG 1.1//EN" "http://www.w3.org/Graphics/SVG/1.1/DTD/svg11.dtd">
<svg version="1.1" id="Capa_1" xmlns="http://www.w3.org/2000/svg" xmlns:xlink="http://www.w3.org/1999/xlink" x="0px" y="0px"
	 width="100px" height="87px" viewBox="0 0 100 87" enable-background="new 0 0 100 87" xml:space="preserve">
<g>
	<g>
		<path fill="#E20613" d="M33.651,17.255c0,1.541,1.248,2.79,2.785,2.79c0.031,0,0.061-0.009,0.094-0.01v0.01h5.691v14.687
			c0,1.438,1.163,2.604,2.599,2.604h10.269c1.438,0,2.602-1.165,2.602-2.604V20.044h6.342c1.539,0,2.784-1.249,2.784-2.79
			c0-0.844-0.383-1.591-0.974-2.103L51.84,1.705l-0.029,0.007C51.421,1.277,50.86,1,50.229,1c-0.637,0-1.204,0.285-1.596,0.729
			l-0.009-0.002L34.747,15.053C34.085,15.562,33.651,16.354,33.651,17.255z"/>
	</g>
	<path fill="#8CA0C8" d="M99,80.794C99,83.671,96.675,86,93.803,86H6.253c-2.87,0-5.198-2.329-5.198-5.206V65.38
		c0-2.873,2.329-5.204,5.198-5.204h87.549c2.872,0,5.197,2.331,5.197,5.204V80.794z"/>
	<path fill="#FFFFFF" d="M98.972,75.409v-30.54c0-1.437-1.162-2.602-2.598-2.602H3.599C2.165,42.267,1,43.432,1,44.869v30.54H98.972
		z"/>
	<path fill="#5379B0" d="M49.985,61.438c10.518,0,19.047-8.541,19.047-19.076c0-0.032-0.009-0.063-0.009-0.096H30.945
		c0,0.032-0.003,0.063-0.003,0.096C30.942,52.897,39.468,61.438,49.985,61.438z"/>
</g>
</svg>
