<svg xmlns="http://www.w3.org/2000/svg" width="100" height="100" viewBox="0 0 100 100"><circle fill="#FD0" stroke="#FFF" stroke-width="1.752" stroke-miterlimit="10" cx="50.001" cy="50.001" r="38.591"/><circle fill="#FD0" stroke="#FFF" stroke-width="1.752" stroke-miterlimit="10" cx="50.001" cy="50.001" r="38.591"/><path fill="#FFD445" d="M50 11.183a39 39 0 0 1 6.75.597L49.33 1l-7.11 10.963c2.512-.51 5.115-.78 7.78-.78z"/><path fill="#FBE937" d="M17.273 29.14l-12.8 2.727 7.415 10.776a38.56 38.56 0 0 1 5.385-13.504zM70.86 17.272l-2.728-12.8-10.775 7.416a38.56 38.56 0 0 1 13.504 5.384z"/><path fill="#FFD445" d="M27.748 18.203l-12.87-2.376 2.727 12.795a38.988 38.988 0 0 1 10.143-10.42z"/><path fill="#FBE937" d="M41.604 12.103L30.63 4.985l-2.376 12.857a38.62 38.62 0 0 1 13.35-5.74z"/><path fill="#FFD445" d="M99 49.33l-10.963-7.11a38.963 38.963 0 0 1 .183 14.53L99 49.33z"/><path fill="#FBE937" d="M87.898 41.605l7.115-10.977-12.855-2.375a38.68 38.68 0 0 1 5.74 13.352z"/><path fill="#FFD445" d="M81.8 27.748l2.376-12.87-12.795 2.727A39.043 39.043 0 0 1 81.8 27.748z"/><path fill="#FBE937" d="M58.395 87.896l10.977 7.117 2.375-12.855a38.6 38.6 0 0 1-13.352 5.738z"/><path fill="#FFD445" d="M50 88.816c-2.303 0-4.555-.21-6.75-.596L50.67 99l7.11-10.963c-2.512.512-5.114.78-7.78.78zM72.252 81.797l12.87 2.38-2.726-12.796a39.025 39.025 0 0 1-10.144 10.417zM11.183 50c0-2.304.212-4.556.597-6.75L1 50.67l10.964 7.113a39.05 39.05 0 0 1-.78-7.782z"/><path fill="#FBE937" d="M82.73 70.863l12.798-2.73-7.414-10.775a38.63 38.63 0 0 1-5.385 13.505zM12.104 58.396L4.986 69.37l12.857 2.376a38.61 38.61 0 0 1-5.74-13.35zM29.14 82.73l2.728 12.796 10.776-7.414A38.574 38.574 0 0 1 29.14 82.73z"/><path fill="#FFD445" d="M18.202 72.252l-2.377 12.87 12.795-2.726a39.047 39.047 0 0 1-10.418-10.144z"/><circle fill="#FFF" cx="36.457" cy="47.255" r="10.849"/><circle fill="#FFF" cx="64.403" cy="47.255" r="10.849"/><circle fill="#1D1D1B" cx="36.457" cy="47.976" r="3.726"/><circle fill="#1D1D1B" cx="64.404" cy="47.976" r="3.727"/><path fill="#7A250F" d="M45.33 69.7a6.036 6.036 0 0 0 5.52 3.604 6.036 6.036 0 0 0 5.52-3.605H45.33z"/></svg>