<?xml version="1.0" encoding="utf-8"?>
<!-- Generator: Adobe Illustrator 16.0.0, SVG Export Plug-In . SVG Version: 6.00 Build 0)  -->
<!DOCTYPE svg PUBLIC "-//W3C//DTD SVG 1.1//EN" "http://www.w3.org/Graphics/SVG/1.1/DTD/svg11.dtd">
<svg version="1.1" id="Capa_1" xmlns="http://www.w3.org/2000/svg" xmlns:xlink="http://www.w3.org/1999/xlink" x="0px" y="0px"
	 width="100px" height="100px" viewBox="0 0 100 100" enable-background="new 0 0 100 100" xml:space="preserve">
<g>
	<circle fill="#FFDD00" stroke="#FFFFFF" stroke-width="1.7525" stroke-miterlimit="10" cx="50.001" cy="50.001" r="38.591"/>
	<circle fill="#FFDD00" stroke="#FFFFFF" stroke-width="1.7525" stroke-miterlimit="10" cx="50.001" cy="50.001" r="38.591"/>
	<path fill="#FFD445" d="M50,11.183c2.303,0,4.557,0.212,6.75,0.597L49.331,1l-7.112,10.963C44.732,11.452,47.335,11.183,50,11.183z
		"/>
	<path fill="#FBE937" d="M17.273,29.139l-12.8,2.728l7.415,10.776C12.827,37.753,14.684,33.19,17.273,29.139z"/>
	<path fill="#FBE937" d="M70.861,17.272l-2.729-12.8l-10.775,7.416C62.246,12.826,66.811,14.684,70.861,17.272z"/>
	<path fill="#FFD445" d="M27.748,18.203l-12.87-2.376l2.727,12.795C20.302,24.542,23.749,21.006,27.748,18.203z"/>
	<path fill="#FBE937" d="M41.604,12.103L30.63,4.985l-2.376,12.857C32.237,15.144,36.752,13.173,41.604,12.103z"/>
	<path fill="#FFD445" d="M99,49.331l-10.963-7.112c0.512,2.514,0.779,5.116,0.779,7.783c0,2.304-0.211,4.556-0.596,6.747L99,49.331z
		"/>
	<path fill="#FBE937" d="M87.898,41.605l7.115-10.977l-12.855-2.375C84.855,32.237,86.826,36.751,87.898,41.605z"/>
	<path fill="#FFD445" d="M81.799,27.748l2.377-12.87l-12.795,2.727C75.459,20.302,78.994,23.749,81.799,27.748z"/>
	<path fill="#FBE937" d="M58.395,87.896l10.977,7.117l2.375-12.855C67.762,84.857,63.25,86.826,58.395,87.896z"/>
	<path fill="#FFD445" d="M50,88.816c-2.303,0-4.555-0.211-6.749-0.596L50.67,99l7.111-10.963C55.268,88.549,52.666,88.816,50,88.816
		z"/>
	<path fill="#FFD445" d="M72.252,81.797l12.869,2.379l-2.725-12.795C79.699,75.459,76.25,78.994,72.252,81.797z"/>
	<path fill="#FFD445" d="M11.183,50.001c0-2.305,0.212-4.557,0.597-6.75L1,50.67l10.964,7.113
		C11.453,55.268,11.183,52.666,11.183,50.001z"/>
	<path fill="#FBE937" d="M82.729,70.863l12.799-2.73l-7.414-10.775C87.174,62.248,85.316,66.811,82.729,70.863z"/>
	<path fill="#FBE937" d="M12.104,58.396L4.986,69.371l12.857,2.375C15.144,67.762,13.174,63.248,12.104,58.396z"/>
	<path fill="#FBE937" d="M29.139,82.729l2.729,12.797l10.776-7.414C37.752,87.174,33.191,85.316,29.139,82.729z"/>
	<path fill="#FFD445" d="M18.202,72.252l-2.377,12.871l12.795-2.727C24.542,79.697,21.006,76.252,18.202,72.252z"/>
	<g>
		<circle fill="#FFFFFF" cx="36.457" cy="47.255" r="10.849"/>
		<circle fill="#FFFFFF" cx="64.403" cy="47.255" r="10.849"/>
		<circle fill="#1D1D1B" cx="36.457" cy="47.976" r="3.726"/>
		<circle fill="#1D1D1B" cx="64.404" cy="47.976" r="3.727"/>
		<path fill="#7A250F" d="M45.33,69.699c0.938,2.121,3.053,3.605,5.521,3.605c2.467,0,4.582-1.484,5.52-3.605H45.33z"/>
	</g>
</g>
</svg>
