<?xml version="1.0" encoding="utf-8"?>
<!-- Generator: Adobe Illustrator 16.0.0, SVG Export Plug-In . SVG Version: 6.00 Build 0)  -->
<!DOCTYPE svg PUBLIC "-//W3C//DTD SVG 1.1//EN" "http://www.w3.org/Graphics/SVG/1.1/DTD/svg11.dtd">
<svg version="1.1" id="Capa_1" xmlns="http://www.w3.org/2000/svg" xmlns:xlink="http://www.w3.org/1999/xlink" x="0px" y="0px"
	 width="100px" height="82px" viewBox="0 0 100 82" enable-background="new 0 0 100 82" xml:space="preserve">
<path fill="#676767" d="M99,10.472c-3.615,1.603-7.484,2.696-11.555,3.183c4.145-2.508,7.344-6.455,8.834-11.172
	c-3.877,2.307-8.186,3.991-12.762,4.897C79.85,3.456,74.625,1,68.84,1c-11.092,0-20.096,9.046-20.096,20.195
	c0,1.587,0.179,3.13,0.514,4.605C32.554,24.955,17.735,16.919,7.821,4.699C6.091,7.687,5.1,11.146,5.1,14.853
	c0,7.001,3.541,13.187,8.945,16.811c-3.295-0.105-6.396-1.011-9.109-2.523c0,0.083,0,0.165,0,0.254
	c0,9.78,6.925,17.941,16.123,19.799c-1.685,0.457-3.458,0.711-5.285,0.711c-1.304,0-2.564-0.127-3.787-0.358
	c2.557,8.016,9.989,13.856,18.785,14.021c-6.888,5.421-15.557,8.656-24.979,8.656c-1.618,0-3.22-0.104-4.793-0.3
	C9.9,77.659,20.463,81,31.815,81C68.795,81,89.02,50.227,89.02,23.539c0-0.876-0.023-1.745-0.061-2.613
	C92.895,18.08,96.295,14.531,99,10.472z"/>
</svg>
