<svg xmlns="http://www.w3.org/2000/svg" width="100" height="82" viewBox="0 0 100 82"><path fill="#676767" d="M99 10.472a40.223 40.223 0 0 1-11.555 3.183C91.59 11.147 94.79 7.2 96.28 2.483A40.255 40.255 0 0 1 83.516 7.38 20.042 20.042 0 0 0 68.84 1c-11.092 0-20.096 9.046-20.096 20.195 0 1.587.18 3.13.514 4.605-16.704-.845-31.523-8.88-41.437-21.1A20.177 20.177 0 0 0 5.1 14.852c0 7 3.54 13.187 8.945 16.81a19.984 19.984 0 0 1-9.11-2.522v.255c0 9.78 6.926 17.94 16.124 19.8-1.686.456-3.46.71-5.286.71-1.304 0-2.564-.127-3.787-.358 2.557 8.016 9.99 13.856 18.785 14.02-6.888 5.422-15.557 8.657-24.98 8.657a38.78 38.78 0 0 1-4.792-.3C9.9 77.66 20.463 81 31.815 81c36.98 0 57.205-30.773 57.205-57.46 0-.877-.023-1.746-.06-2.614A40.852 40.852 0 0 0 99 10.472z"/></svg>