<svg xmlns="http://www.w3.org/2000/svg" width="70" height="100" viewBox="0 0 70 100"><path fill="#FBE8CB" d="M63.998 38.525c0-16.26-13.217-29.438-29.52-29.438S4.96 22.267 4.96 38.525c0 13.638 9.313 25.078 21.935 28.42v6.108a10.888 10.888 0 0 0 7.076 2.607 10.9 10.9 0 0 0 7.277-2.78v-5.726c13.033-3.054 22.75-14.698 22.75-28.63z"/><path fill="#E20613" d="M34.23 75.497l-8.18-4.688h-7.01V99h31.833V70.81h-8.488l-8.16 4.687zM1 83.762C1 95.676 1.625 99 1.625 99h15.09V70.864C10.67 71.174 1 73.16 1 83.762zM53.2 70.86V99h15.175S69 95.676 69 83.762c0-10.652-9.76-12.607-15.8-12.902z"/><path d="M64.344 38.17c0-9.342-4.365-17.645-11.152-23.06 1.338-1.422 2.062-3.088 1.945-5.02C54.734 3.323 50.883 1 50.883 1S49.87 6.758 41.97 6.15c0 0-6.786-.1-12.66-1.414C23.433 3.424 14.114 3.626 14.317 11c.048 1.746.517 3.245 1.344 4.524C9.16 20.942 5.01 29.06 5.01 38.17c0 2.34.3 4.6.813 6.78l12.814-26.6c3.4 2.08 8.672 2.933 15.33 2.65 6.46-.27 12.216-1.47 16.1-3.567L63.66 44.46a29.74 29.74 0 0 0 .686-6.29z"/><path d="M46.936 47.914c-5.172 0-9.377-3.91-9.377-8.715 0-4.807 4.203-8.716 9.375-8.716 5.168 0 9.373 3.91 9.373 8.714s-4.206 8.714-9.374 8.714z"/><path fill="#FFF" d="M59.49 31.65l-1.61-.496s-.32-.496-3.57-1.285c-1.837-.447-4.224-.64-5.952-.725-.26-.032-.52-.064-.783-.08a12.39 12.39 0 0 0-.64-.017c-.233 0-.46.02-.687.032h-.166l-.014.01c-3.168.235-5.953 1.76-7.766 4.01a5.145 5.145 0 0 0-7.29.158c-1.808-2.335-4.643-3.927-7.883-4.17l-.016-.01-.165.002c-.23-.013-.456-.033-.688-.033-.214 0-.428.005-.64.016-.265.016-.524.048-.783.08-1.73.084-4.118.278-5.953.723-3.25.788-3.572 1.284-3.572 1.284l-1.61.496-.06 2.862s1.084 1.518 1.787 4.845c.01.055.022.1.033.15.176 5.453 4.945 9.84 10.796 9.84 5.963 0 10.814-4.553 10.814-10.15 0-1.68-.44-3.267-1.217-4.665.705-.88 1.74-1.417 2.894-1.417 1.05 0 2.01.446 2.716 1.205a9.582 9.582 0 0 0-1.348 4.878c0 5.597 4.85 10.15 10.813 10.15 5.85 0 10.62-4.39 10.796-9.84.012-.052.02-.096.033-.15.703-3.328 1.787-4.846 1.787-4.846l-.058-2.862zM22.264 47.914c-5.17 0-9.374-3.91-9.374-8.715 0-4.807 4.205-8.716 9.374-8.716 5.168 0 9.374 3.91 9.374 8.714s-4.205 8.714-9.374 8.714zm24.672 0c-5.172 0-9.377-3.91-9.377-8.715 0-4.807 4.203-8.716 9.375-8.716 5.168 0 9.373 3.91 9.373 8.714s-4.206 8.714-9.374 8.714z"/><path d="M22.264 47.914c-5.17 0-9.374-3.91-9.374-8.715 0-4.807 4.205-8.716 9.374-8.716 5.168 0 9.374 3.91 9.374 8.714s-4.205 8.714-9.374 8.714z"/><path fill="#CF985A" d="M8.465 52.37c3.812 7.1 10.45 12.46 18.43 14.575v6.108c.923.784 1.965 1.4 3.08 1.842h8c1.195-.473 2.3-1.15 3.27-2.016v-5.727c8.347-1.956 15.315-7.44 19.257-14.784H8.465z"/><path fill="#1D1D1B" d="M42.072 70.928l-7.934 4.57-7.934-4.57v10.334l7.934-4.57 7.934 4.57z"/><path fill="#E20613" d="M29.367 54.46c1 1.805 2.903 3.04 5.116 3.04s4.115-1.235 5.115-3.04h-10.23z"/><path d="M34.322 49.946l.476-.416c.624-.547 1.288-1.038 2.062-1.354 1.23-.5 2.43-.41 3.533.325.67.448 1.275.988 1.918 1.476.53.4 1.045.824 1.61 1.162.98.58 1.97.48 2.9-.138.347-.23.66-.5 1.063-.81-.31 1.32-.826 2.453-1.61 3.463-.8 1.03-1.812 1.76-3.034 2.228-3.017 1.157-7.58-.156-8.916-3.31-.84 1.78-2.29 2.795-4.078 3.36-1.782.56-3.557.517-5.29-.237-2.436-1.062-3.823-3.628-4.145-5.483l.38.33c1.427 1.236 2.677 1.31 4.194.198.696-.51 1.337-1.092 2.01-1.636.607-.493 1.253-.932 2.026-1.122 1.19-.293 2.28.004 3.27.677.478.325.916.705 1.372 1.062.083.062.157.134.26.225z"/></svg>