<?xml version="1.0" encoding="utf-8"?>
<!-- Generator: Adobe Illustrator 16.0.0, SVG Export Plug-In . SVG Version: 6.00 Build 0)  -->
<!DOCTYPE svg PUBLIC "-//W3C//DTD SVG 1.1//EN" "http://www.w3.org/Graphics/SVG/1.1/DTD/svg11.dtd">
<svg version="1.1" id="Capa_1" xmlns="http://www.w3.org/2000/svg" xmlns:xlink="http://www.w3.org/1999/xlink" x="0px" y="0px"
	 width="70px" height="100px" viewBox="0 0 70 100" enable-background="new 0 0 70 100" xml:space="preserve">
<g>
	<path fill="#FBE8CB" d="M63.998,38.525c0-16.259-13.217-29.438-29.52-29.438S4.96,22.266,4.96,38.525
		c0,13.638,9.313,25.078,21.935,28.42v6.108c1.96,1.667,4.444,2.607,7.076,2.607c2.724,0,5.283-1.007,7.275-2.781v-5.725
		C54.281,64.101,63.998,52.456,63.998,38.525z"/>
	<path fill="#E20613" d="M34.229,75.497l-8.18-4.688c-2.517,0-5.069,0-7.007,0V99h15.507h0.903h15.424V70.81
		c-2.338,0-5.535,0-8.488,0L34.229,75.497z"/>
	<path fill="#E20613" d="M1,83.762C1,95.676,1.625,99,1.625,99h15.091V70.864C10.668,71.175,1,73.161,1,83.762z"/>
	<path fill="#E20613" d="M53.199,70.86V99h15.176c0,0,0.625-3.324,0.625-15.238C69,73.11,59.24,71.155,53.199,70.86z"/>
	<path d="M64.344,38.171c0-9.343-4.365-17.646-11.152-23.061c1.338-1.422,2.062-3.088,1.945-5.02C54.734,3.323,50.883,1,50.883,1
		s-1.012,5.758-8.912,5.151c0,0-6.787-0.101-12.662-1.415C23.434,3.424,14.115,3.626,14.318,11c0.048,1.746,0.517,3.245,1.344,4.524
		C9.162,20.942,5.011,29.06,5.011,38.171c0,2.337,0.3,4.599,0.813,6.78L18.638,18.35c3.401,2.081,8.672,2.932,15.331,2.65
		c6.458-0.272,12.215-1.469,16.1-3.568l13.59,27.028C64.096,42.432,64.344,40.332,64.344,38.171z"/>
	<path d="M46.936,47.914c-5.172,0-9.377-3.909-9.377-8.715c0-4.805,4.205-8.714,9.377-8.714c5.168,0,9.373,3.909,9.373,8.714
		C56.309,44.004,52.104,47.914,46.936,47.914z"/>
	<path fill="#FFFFFF" d="M59.49,31.65l-1.609-0.496c0,0-0.32-0.496-3.572-1.285c-1.836-0.445-4.223-0.639-5.951-0.723
		c-0.26-0.032-0.52-0.064-0.783-0.08c-0.213-0.011-0.426-0.017-0.639-0.017c-0.234,0-0.461,0.02-0.688,0.033
		c-0.102-0.001-0.166-0.001-0.166-0.001l-0.014,0.01c-3.168,0.236-5.953,1.762-7.766,4.012c-0.955-0.908-2.199-1.438-3.549-1.438
		c-1.444,0-2.774,0.585-3.741,1.596c-1.808-2.336-4.643-3.928-7.883-4.17l-0.014-0.01c0,0-0.065,0-0.165,0.001
		c-0.228-0.013-0.455-0.033-0.687-0.033c-0.214,0-0.428,0.006-0.64,0.017c-0.265,0.016-0.524,0.048-0.783,0.08
		c-1.729,0.084-4.117,0.278-5.952,0.723c-3.251,0.789-3.572,1.285-3.572,1.285l-1.61,0.496l-0.059,2.862
		c0,0,1.083,1.518,1.786,4.845c0.011,0.055,0.022,0.099,0.033,0.151c0.176,5.452,4.945,9.839,10.796,9.839
		c5.962,0,10.813-4.553,10.813-10.149c0-1.682-0.441-3.268-1.217-4.666c0.705-0.881,1.741-1.417,2.894-1.417
		c1.049,0,2.01,0.445,2.715,1.204c-0.852,1.448-1.348,3.108-1.348,4.879c0,5.597,4.852,10.149,10.814,10.149
		c5.85,0,10.619-4.388,10.795-9.839c0.012-0.052,0.021-0.096,0.033-0.151c0.703-3.327,1.787-4.845,1.787-4.845L59.49,31.65z
		 M22.264,47.914c-5.169,0-9.374-3.909-9.374-8.715c0-4.805,4.205-8.714,9.374-8.714c5.168,0,9.374,3.909,9.374,8.714
		C31.638,44.004,27.433,47.914,22.264,47.914z M46.936,47.914c-5.172,0-9.377-3.909-9.377-8.715c0-4.805,4.205-8.714,9.377-8.714
		c5.168,0,9.373,3.909,9.373,8.714C56.309,44.004,52.104,47.914,46.936,47.914z"/>
	<path d="M22.264,47.914c-5.169,0-9.374-3.909-9.374-8.715c0-4.805,4.205-8.714,9.374-8.714c5.168,0,9.374,3.909,9.374,8.714
		C31.638,44.004,27.433,47.914,22.264,47.914z"/>
	<path fill="#CF985A" d="M8.465,52.371c3.812,7.1,10.449,12.46,18.43,14.574v6.108c0.923,0.784,1.965,1.4,3.08,1.842h8
		c1.195-0.473,2.301-1.151,3.271-2.016v-5.725c8.346-1.956,15.314-7.439,19.256-14.784H8.465z"/>
	<polygon fill="#1D1D1B" points="42.072,70.928 34.138,75.497 26.204,70.928 26.204,81.262 34.138,76.693 42.072,81.262 	"/>
	<path fill="#E20613" d="M29.367,54.461c1,1.804,2.903,3.039,5.116,3.039s4.115-1.235,5.115-3.039H29.367z"/>
	<g id="HgElEV_1_">
		<g>
			<path d="M34.322,49.946c0.166-0.145,0.32-0.281,0.476-0.416c0.624-0.547,1.288-1.038,2.062-1.354
				c1.23-0.501,2.43-0.409,3.533,0.325c0.67,0.446,1.275,0.986,1.918,1.474c0.527,0.399,1.043,0.824,1.609,1.162
				c0.979,0.581,1.969,0.481,2.9-0.138c0.346-0.228,0.66-0.5,1.062-0.808c-0.309,1.318-0.826,2.452-1.611,3.462
				c-0.799,1.03-1.811,1.761-3.033,2.228c-3.016,1.155-7.578-0.158-8.915-3.311c-0.84,1.778-2.289,2.794-4.078,3.358
				c-1.782,0.562-3.557,0.518-5.29-0.236c-2.436-1.062-3.823-3.628-4.145-5.483c0.144,0.125,0.262,0.229,0.379,0.331
				c1.427,1.236,2.677,1.311,4.194,0.198c0.696-0.511,1.337-1.092,2.009-1.636c0.608-0.493,1.254-0.932,2.027-1.122
				c1.192-0.293,2.281,0.004,3.272,0.677c0.477,0.325,0.915,0.705,1.371,1.062C34.145,49.783,34.219,49.855,34.322,49.946z"/>
		</g>
	</g>
</g>
</svg>
