<?xml version="1.0" encoding="utf-8"?>
<!-- Generator: Adobe Illustrator 16.0.0, SVG Export Plug-In . SVG Version: 6.00 Build 0)  -->
<!DOCTYPE svg PUBLIC "-//W3C//DTD SVG 1.1//EN" "http://www.w3.org/Graphics/SVG/1.1/DTD/svg11.dtd">
<svg version="1.1" id="Capa_1" xmlns="http://www.w3.org/2000/svg" xmlns:xlink="http://www.w3.org/1999/xlink" x="0px" y="0px"
	 width="100px" height="91px" viewBox="0 0 100 91" enable-background="new 0 0 100 91" xml:space="preserve">
<g>
	<path fill="#E1E1E1" d="M50,1C22.938,1,1,17.461,1,37.766c0,11.12,6.587,21.076,16.98,27.817C17.961,74.821,13.953,83.303,7.274,90
		c12.629-2.199,23.434-8.303,30.364-16.649c3.949,0.77,8.092,1.182,12.362,1.182c27.062,0,48.999-16.46,48.999-36.766
		C98.999,17.461,77.062,1,50,1z"/>
	<ellipse fill="#5E5F5F" cx="29.676" cy="36.795" rx="5.847" ry="5.827"/>
	<ellipse fill="#5E5F5F" cx="49.999" cy="36.795" rx="5.846" ry="5.827"/>
	<ellipse fill="#5E5F5F" cx="70.324" cy="36.795" rx="5.847" ry="5.827"/>
</g>
</svg>
